<mxfile host="app.diagrams.net" modified="2023-06-27T20:50:27.494Z" agent="Mozilla/5.0 (Windows NT 10.0; Win64; x64) AppleWebKit/537.36 (KHTML, like Gecko) Chrome/114.0.0.0 Safari/537.36" etag="VnLV77D-bOc8RVsy3JMC" version="21.5.0" type="device">
  <diagram name="Página-1" id="xDMcNzpDwwI4Z2ko0hb-">
    <mxGraphModel dx="2442" dy="2034" grid="1" gridSize="10" guides="1" tooltips="1" connect="1" arrows="1" fold="1" page="1" pageScale="1" pageWidth="827" pageHeight="1169" math="0" shadow="0">
      <root>
        <mxCell id="0" />
        <mxCell id="1" parent="0" />
        <mxCell id="Ux2NfSEgZfTg27yrWYkO-218" value="«SubSystem»&lt;br&gt;&lt;b&gt;PDF Generator&lt;/b&gt;" style="html=1;whiteSpace=wrap;verticalAlign=top;" parent="1" vertex="1">
          <mxGeometry x="2068" y="-180" width="372" height="190" as="geometry" />
        </mxCell>
        <mxCell id="Ux2NfSEgZfTg27yrWYkO-1" value="«System»&lt;br&gt;&lt;b&gt;Backend (EC2)&lt;/b&gt;" style="html=1;whiteSpace=wrap;verticalAlign=top;" parent="1" vertex="1">
          <mxGeometry x="230" y="-380" width="1660" height="1320" as="geometry" />
        </mxCell>
        <mxCell id="Ux2NfSEgZfTg27yrWYkO-2" value="«SubSystem»&lt;br&gt;&lt;b&gt;Workers Handling&lt;/b&gt;" style="html=1;whiteSpace=wrap;verticalAlign=top;" parent="1" vertex="1">
          <mxGeometry x="730" y="560" width="600" height="350" as="geometry" />
        </mxCell>
        <mxCell id="Ux2NfSEgZfTg27yrWYkO-3" value="«SubSystem»&lt;br&gt;&lt;b&gt;Frontend (S3)&lt;/b&gt;" style="html=1;whiteSpace=wrap;verticalAlign=top;" parent="1" vertex="1">
          <mxGeometry x="-328.6" y="280" width="300" height="360" as="geometry" />
        </mxCell>
        <mxCell id="Ux2NfSEgZfTg27yrWYkO-4" value="«SubSystem»&lt;br&gt;&lt;b&gt;Ticket Handling&lt;/b&gt;" style="html=1;whiteSpace=wrap;verticalAlign=top;" parent="1" vertex="1">
          <mxGeometry x="460" y="-332" width="1400" height="812" as="geometry" />
        </mxCell>
        <mxCell id="Ux2NfSEgZfTg27yrWYkO-5" value="«SubSystem»&lt;br&gt;&lt;b&gt;Broker Handler&lt;/b&gt;" style="html=1;whiteSpace=wrap;verticalAlign=top;" parent="1" vertex="1">
          <mxGeometry x="1610" y="-140" width="220" height="470" as="geometry" />
        </mxCell>
        <mxCell id="Ux2NfSEgZfTg27yrWYkO-6" style="edgeStyle=orthogonalEdgeStyle;rounded=0;orthogonalLoop=1;jettySize=auto;html=1;exitX=0.5;exitY=0.5;exitDx=0;exitDy=0;exitPerimeter=0;entryX=0;entryY=0.5;entryDx=0;entryDy=0;" parent="1" source="Ux2NfSEgZfTg27yrWYkO-7" target="Ux2NfSEgZfTg27yrWYkO-8" edge="1">
          <mxGeometry relative="1" as="geometry" />
        </mxCell>
        <mxCell id="Ux2NfSEgZfTg27yrWYkO-7" value="Usuario" style="shape=umlActor;verticalLabelPosition=bottom;verticalAlign=top;html=1;outlineConnect=0;fontFamily=Helvetica;" parent="1" vertex="1">
          <mxGeometry x="-810" y="100" width="30" height="60" as="geometry" />
        </mxCell>
        <mxCell id="Ux2NfSEgZfTg27yrWYkO-8" value="«System»&lt;br&gt;&lt;b&gt;Browser&lt;/b&gt;" style="html=1;dropTarget=0;whiteSpace=wrap;verticalAlign=middle;" parent="1" vertex="1">
          <mxGeometry x="-680" y="77.5" width="160" height="105" as="geometry" />
        </mxCell>
        <mxCell id="Ux2NfSEgZfTg27yrWYkO-9" value="Cloud" style="shape=umlFrame;whiteSpace=wrap;html=1;pointerEvents=0;" parent="1" vertex="1">
          <mxGeometry x="-400" y="-430" width="2320" height="1400" as="geometry" />
        </mxCell>
        <mxCell id="Ux2NfSEgZfTg27yrWYkO-10" value="«Componente»&lt;br&gt;&lt;b&gt;Nginx&lt;/b&gt;" style="html=1;dropTarget=0;whiteSpace=wrap;" parent="1" vertex="1">
          <mxGeometry x="480" y="85" width="180" height="90" as="geometry" />
        </mxCell>
        <mxCell id="Ux2NfSEgZfTg27yrWYkO-11" value="" style="shape=module;jettyWidth=8;jettyHeight=4;" parent="Ux2NfSEgZfTg27yrWYkO-10" vertex="1">
          <mxGeometry x="1" width="20" height="20" relative="1" as="geometry">
            <mxPoint x="-27" y="7" as="offset" />
          </mxGeometry>
        </mxCell>
        <mxCell id="Ux2NfSEgZfTg27yrWYkO-12" value="" style="rounded=0;orthogonalLoop=1;jettySize=auto;html=1;endArrow=none;endFill=0;sketch=0;sourcePerimeterSpacing=0;targetPerimeterSpacing=0;exitX=0;exitY=0.5;exitDx=0;exitDy=0;exitPerimeter=0;" parent="1" source="Ux2NfSEgZfTg27yrWYkO-67" target="Ux2NfSEgZfTg27yrWYkO-14" edge="1">
          <mxGeometry relative="1" as="geometry">
            <mxPoint x="-280" y="130" as="sourcePoint" />
          </mxGeometry>
        </mxCell>
        <mxCell id="Ux2NfSEgZfTg27yrWYkO-13" value="" style="rounded=0;orthogonalLoop=1;jettySize=auto;html=1;endArrow=halfCircle;endFill=0;entryX=0.5;entryY=0.5;endSize=6;strokeWidth=1;sketch=0;exitX=1;exitY=0.5;exitDx=0;exitDy=0;" parent="1" source="Ux2NfSEgZfTg27yrWYkO-8" target="Ux2NfSEgZfTg27yrWYkO-14" edge="1">
          <mxGeometry relative="1" as="geometry">
            <mxPoint x="-310" y="196.5" as="sourcePoint" />
          </mxGeometry>
        </mxCell>
        <mxCell id="Ux2NfSEgZfTg27yrWYkO-14" value="" style="ellipse;whiteSpace=wrap;html=1;align=center;aspect=fixed;resizable=0;points=[];outlineConnect=0;sketch=0;" parent="1" vertex="1">
          <mxGeometry x="-460" y="125" width="10" height="10" as="geometry" />
        </mxCell>
        <mxCell id="Ux2NfSEgZfTg27yrWYkO-15" value="" style="shape=image;verticalLabelPosition=bottom;labelBackgroundColor=default;verticalAlign=top;aspect=fixed;imageAspect=0;image=data:image/png,iVBORw0KGgoAAAANSUhEUgAAAYwAAAB/CAMAAADLlgV7AAAAw1BMVEX///8AAADrVCTqRQD74NqUlJT4+Pjc3Nzj4+PqQgDX19fKysqxsbFqampSUlLOzs4zMzPrUBxlZWUQEBDqTRXu7u7qSxDp6em/v7+lpaX5+fn51MydnZ0uLi5NTU3++Pb0rJzvgWb97emBgYEdHR17e3tzc3NCQkL629X85uHzpJL4zcTsYjpaWlrve173xbq4uLjxknv2u6/ynos8PDztbUsXFxfrWCryloHucE71sqPwiG/2vrLpMgD0qZiLi4vsXzSi0PkdAAAN7UlEQVR4nO1d2ULbOhBNCJshQENDQimBshcKBQqUtrSU//+qm9U+I81IIy9xcuvzhmMJS0cezaZxrUZx2VjQof2jrb2zViEdPnV0M9x6q0VKMhofyx7UvOK6pVzuV7Wv2lvvyx7UnOJYvdwXa9+UL9FCp+xRzSl+aSd4oVY7rORUsVBLqYf+zU/am3+UPay5hF5Kfe7fXcmpQqGWUq3B3WHUVQjEzzDBo5ZTDyWPax6hX+qjLTnsRaoQhNBNoJJTBUItpSZmXJDyVSEE4YaD1nkyMEsqBOG3dmobkxaXWvqixTIHNo9QO5te4ibPeldWhRDopdSXuM2r9mV6LnFg84hbbSijkbRZVMupy/IGNo84Uoqc1gs0elaS0XktbVzziEP1i3ELra6U8b7WW1njmkuopVSErRbVrSo5FYAXrZQ6Is2UrRY6n8oZ1nwilZSq1R60cuq6pHHNI76o5c0hafe5klP54167wr8aDdXOxV+Zn7HbXc7cR+lY3tnxjkK7wDu/jYba/KmMcmrl5LQ+wPZupm5So7uSIHUfzfPecBD1x7Pmjnzfx5RSKqTlcdpB9IdxUE9QCh1/4QHSvZ/NxzrBgTgO9fr+aTWdgpy6o8O4Sd1ReixlJOND3capQId6Rr9ZTdW7zVOKMQyxb47iMW1P6ZGNjJVThos+NrmussgavR6WUk7t2oPYTtdTBmQig3stxli371ZLKW51q/d++63SYJkbw12qrjIgCxknMhf1+gfrdm1GOSv3X9LvN+mHkqqrDMhAxrmLC5sNveXGSZq09qIOe/wQpq1SpSfjLz+ABMZbntGnUaicuuNHsJGiqyxITYa54727uTF38y5poJxMSTtV+xhN610D6SVP0VUWpCXD2PGao4tUP+xhA328jteH9N73FHJK4KK+Fd6VGzvdBPavacnYxmdOlMBlYgGeQAN1hEjwaKjjUpYvxY81fMNxQf0N7sqDG+drl5KMdZzzc/wFfQp18LBoczzE2Kk6Yhsup3AS/uJmfhrclQewht+7nyOAjO/Q7ID+hDvHRXxVn/0kecELlFM9eOSt2jv4i5ElmVAEGc263GwFf4ttv6uooUIk5i8f/tH10PhzK3UhYAefmE6JbS1lQxFkvHc9LxpQ8atxf7mog+zOUHZwuRiadItLa5vuIJuBXflQABlErbV+JQttbXRt8c+RdV9BOL6O/DcRoDIyUAudo8uGAsi4gEaMwoGDG2/ur512ezpHIL9FLchGVAEnfxCOQauD8bFlQf5kdPHpV+3ft+ylNTh/FE0jZ/+oEXzYEh93aBqhPX6W7+PlTwZq4u+4G5CMoX9nlGLbecoQh1Phc2tgzQQms6FfZ2lwgRi0+T5g/mSg7seqGzi8oX9n7OZrNUIVnTBcjfXnsKAG6uKjLQ7FcOpgNIvcySAbNKuIoz4yXFpxInn0wt2fD46fJpZI0Kaxar8H+Orv5/qMuZOBIlUwUXF8g8WWnMroPBd1pOW2Ef+ToJMaGCEbu2nRVLpwtw5E7mScQZMT/pYNY2mBX6oVZc9t4nAPJn6QR2QTnnXi9cfFlGsaVe5koPNACL+gGXVjnlhtfE0T/3Hj8plkO4QcQ+YmHtdbrsHXvMkgUTEhS4q4RKxUhFYnb5PjV0S9iAHuKTRgH7mLuUaYgIzv9q8sGd3d/b/nGyf7rMVj7c4c6HKzTlXma3IcfjV9iAFnwvElWJpc3POMcfdic4ILS4XZS348mCiba+97Q2C/4/ZgqNlk7KIBur1mPQju32KmF/7XtdqrFcvoXOdncnzsWM71ABW6Tp50gk32agwUw5bVi0xO6CUrmAJ0Z4OMZSuyfWAyT5z/0hBxB7/jknRaUXgMiMcPxjmvTyw0BOoEqGIt2a2cZCwzbcPJEDJWmvR/4TyLHmbsdp+PC+Vjchxfc3mK+moJaFJAkAw9Pj271RTIkPI96NJQpQfjyjoRSlS0F7KbHN8ivmt1ycJHYTRolttayhTIEEFeAAzyMeJ0BFRHtmtv3IQNRFXW46lHQvSvpXXYEzcUapO4MJtWszLJIJOO1xmX7QgYI9+Uzw43fmYxOUZuQZYMrdWH2gixtdGVa6sppZKBBgpeF0PEJN/CkTIVHHsAvMphdTUZpquAH6bVrFQy4EHJiy2ejEEl5dSZvxalrPR4+ORIUFBn3AqzUqMRMsveCiaDhHhCyLhZau6uN2/oRfZf6ch47y5x0HlLY3J8abgyd7RvhsOAxfm2PHDBZNT2hkC9YLO7OsRe0tIgo7cfE0XPXqxz/0onpurSBj6ZuSg8PfbenfmjJQO3aSOmh4ECy40UTsYYEApi3CyEjHP6piIb8aP6oxkDUDKenDPX38cDsxUMtyBDhtKGcfk8MYRmTvgUyDC7ZS0fQoYopjBi895fZKrdCikwaLoFmf50GxEZy57xI7VbKZxkYK/pyTAfh+ga7ABUZHzXZJBHem/Siz85UVlfB+fUypDCl/vA0bAgMiwX+h3zo05M4Qbe0yQ9B/hZFcXAlMnPqKTYnh0cqLFOyyADF8ckO55s4KLRR5eVonxqQDhIkbarLFPvHgrKBWNDKZuMWJ3CEYipE+gOuVGcAQuqg/rmlXq69BB0EzDBfBzDOf1pJskQHYU0D8xfKDioQrBfTumq1KOPent1xQQ59kBbzgwZmFRku9DGQM/0kuJAXtA3k7xySnk0H12ePlCX6MyQgaJUDC5hMLPpL/McmJDpO3ijE3okYcoHOqszQwa2EIsIHNCWVx7BEvhdGJ92pou6OkoK2KBprDNDBu5rTLrJCDiOrr9SRUPqh4fvsKYuOYQcePOCmFQzQwbJQReye8g9gwvu2Qv+lpibC13VKeEgvgSyPc4MGWTVC8cX8O0ZxmzcDpHgoIb7gL/O/mZKt7hAJPLskIGefmEHPzFvcZt9gVLKV/pCV6EedQwNsO3skIFPwh7PoP5eOKAhoB2eJ+IMZuhqogdyQQ7ozw4ZflchURpHvbrkVIrQq0tO6arbkoSpDQG4x6MQmB0ySHoLmzmFSuM4zO86xR0spdzqmc4XggOXz4rBTegwmSEymLkW/2XMlryUHXk18iuTqjuElDBFga8GzLqTDFQliyfD50UnUmoix+Sv9Ygm2vGTnHUol3WLVAak8twerjsQAjNEBokDMJmoqEvFYRm5EItkog2OIolZh6KcUpa2VaVv03UFEaZZIoM5Wwwg1lQiAR6EV0MSK6OAXiv6xP8skaHUBtDDJro7a9SZmESYkAwrq3LKZJBAvnUCEbsEf4mk3TbYqNxinHMgZB0KxVW1NZ9xwbiqteBbniwsNBgtKqdNBikjZ2i3xBWCTyqEIVgphTkHfNahELDS7Rj2QXwJGNRIlK41V/PpalM1atUZhh+qUtSRyJoaXIrT4U8602zWIUtGmoQpZtcD4NKKLxJJbGj33Q1H3zA5TI2YlGQQxw7plpRoozrjF05QMQUe7WzBzptdhYqVU9rj+PZBfAmorCRRZoywkSOY6zQT0yQD29n2ckoyqP/5Im65R66b5HNmuC2luKNITNYhJ6can6wBsrC8yjJwr95nr/YlzkijWmlu1A2YZKBDrGftVWnJIMPpP+aw7bIRrzG5Z9RbK0X5+I3fWhqWAGI601ZCx7k8d9+KA4Xy6Maknx5csJXITTIoiZvn2zc9+UwfhYMMK07W29juGZdslfHWWvSmlBKOIvVh1UiyU+PUNUNQlvgqCfNnmKw69jxMMpgy33mQQTcHDtySu7cOIdP5k44ije6loW3L3aVPoMbHtPIoDeBeD7uDUJLfQwZTQTcXMnxhS76inPFBaSpY5KNI49eI1kgyXrOO2hOP+qqZuWkBtWBQR7vmeHVk7Fi35EOGmw3Bx3BMlzM5I3zlTa+iNZLoIdqAT/ygJecvCYmjgsvi+ZfeaqIz2Wpz07w9JzJcpemFCi/91U9mHKSU8yhS0gCWP5VTHf3xQKx36S+WivIYI0wCG0u4nzI2jHk8KS8y5DiyY1f8jeVvktV86zyKBHP+HJscRDkL+Cocev8UZYRxLZMw886FOez+RjnY4xNZxBmUhuqTGxm1ZfblOHOWhPmVsJEE5TxHkQBQIwnklNINYo1ZUWDbKHuLuKPb+Pf9sbr16Ox+hdQoBzKcH8Dyk9HfyKzA/onvzU+OqU6Ws/coEkFcIymRU1FQ7TVIqNVUEoLbLWt962TCx/aHxJm+ujWGkKa/dTaWlL3zJjxB3Gxry57u5fXkR8cn33bP4gVyeqapPTphY1LZ0X8UiaI9rpEUO4KDuMgbe6srqzs+BdnC8uraimNOs2BvZWt9d121zgYYS6pRgpNdociPsetw7F+JQnLYK5gYmeJDKfWxo/0YE2JUI2lYyKrVKars4b+CzwPlaZDg9KDeuSmGNZIGcqr9XHS13P8/jt867SuhQpEO0dHgrEHoseUKLF7+XGqNCx7thcvbP1kL81QY4fdRShE1QSu6n061+38Bl0LsQosiirL+w9Ab3tx7UUy54n8X7uo4LoCTqkJOMDNBtIhCTztV0OA10BkyQJYKbhVc8AX4bDSeqp27MITpuNmrflZw4XeAqGovVH7BYqH3i1T+jylA5zHMr4Z6BReYav8W8vy6QAUX/FGmqXzqr8II7vhrO/cv0lRwwZWZULkFpw6pNmflFiwDfMCpcguWg2Mmz7PIL19WcMLMgC76m7AVXKCuw0bhX0uu4AScmolCvtRaoQhMzpO125VbsHyMXIeVW3BG8CNK852TCsXg489q584b/wGjUBuy+uzA6QAAAABJRU5ErkJggg==;" parent="1" vertex="1">
          <mxGeometry x="-284.44" y="-574.5" width="208.91" height="67" as="geometry" />
        </mxCell>
        <mxCell id="Ux2NfSEgZfTg27yrWYkO-16" value="" style="rounded=0;orthogonalLoop=1;jettySize=auto;html=1;endArrow=none;endFill=0;sketch=0;sourcePerimeterSpacing=0;targetPerimeterSpacing=0;exitX=0.5;exitY=1;exitDx=0;exitDy=0;exitPerimeter=0;" parent="1" source="Ux2NfSEgZfTg27yrWYkO-58" target="Ux2NfSEgZfTg27yrWYkO-18" edge="1">
          <mxGeometry relative="1" as="geometry">
            <mxPoint x="350" y="115" as="sourcePoint" />
          </mxGeometry>
        </mxCell>
        <mxCell id="Ux2NfSEgZfTg27yrWYkO-17" value="" style="rounded=0;orthogonalLoop=1;jettySize=auto;html=1;endArrow=halfCircle;endFill=0;entryX=0.5;entryY=0.5;endSize=6;strokeWidth=1;sketch=0;exitX=0.5;exitY=0;exitDx=0;exitDy=0;" parent="1" source="Ux2NfSEgZfTg27yrWYkO-50" target="Ux2NfSEgZfTg27yrWYkO-18" edge="1">
          <mxGeometry relative="1" as="geometry">
            <mxPoint x="390" y="115" as="sourcePoint" />
          </mxGeometry>
        </mxCell>
        <mxCell id="Ux2NfSEgZfTg27yrWYkO-18" value="" style="ellipse;whiteSpace=wrap;html=1;align=center;aspect=fixed;resizable=0;points=[];outlineConnect=0;sketch=0;" parent="1" vertex="1">
          <mxGeometry x="65" y="-47" width="10" height="10" as="geometry" />
        </mxCell>
        <mxCell id="Ux2NfSEgZfTg27yrWYkO-19" value="«Componente»&lt;br&gt;&lt;b&gt;Suscriptor Broker&lt;/b&gt;" style="html=1;dropTarget=0;whiteSpace=wrap;" parent="1" vertex="1">
          <mxGeometry x="1630" y="85" width="180" height="90" as="geometry" />
        </mxCell>
        <mxCell id="Ux2NfSEgZfTg27yrWYkO-20" value="" style="shape=module;jettyWidth=8;jettyHeight=4;" parent="Ux2NfSEgZfTg27yrWYkO-19" vertex="1">
          <mxGeometry x="1" width="20" height="20" relative="1" as="geometry">
            <mxPoint x="-27" y="7" as="offset" />
          </mxGeometry>
        </mxCell>
        <mxCell id="Ux2NfSEgZfTg27yrWYkO-21" value="«Componente»&lt;br&gt;&lt;b&gt;Publicador Broker&lt;/b&gt;" style="html=1;dropTarget=0;whiteSpace=wrap;" parent="1" vertex="1">
          <mxGeometry x="1630" y="220" width="180" height="90" as="geometry" />
        </mxCell>
        <mxCell id="Ux2NfSEgZfTg27yrWYkO-22" value="" style="shape=module;jettyWidth=8;jettyHeight=4;" parent="Ux2NfSEgZfTg27yrWYkO-21" vertex="1">
          <mxGeometry x="1" width="20" height="20" relative="1" as="geometry">
            <mxPoint x="-27" y="7" as="offset" />
          </mxGeometry>
        </mxCell>
        <mxCell id="Ux2NfSEgZfTg27yrWYkO-23" value="«Componente»&lt;br&gt;&lt;b&gt;Broker&lt;/b&gt;" style="html=1;dropTarget=0;whiteSpace=wrap;" parent="1" vertex="1">
          <mxGeometry x="2000" y="85" width="180" height="90" as="geometry" />
        </mxCell>
        <mxCell id="Ux2NfSEgZfTg27yrWYkO-24" value="" style="shape=module;jettyWidth=8;jettyHeight=4;" parent="Ux2NfSEgZfTg27yrWYkO-23" vertex="1">
          <mxGeometry x="1" width="20" height="20" relative="1" as="geometry">
            <mxPoint x="-27" y="7" as="offset" />
          </mxGeometry>
        </mxCell>
        <mxCell id="Ux2NfSEgZfTg27yrWYkO-25" value="HTTPS" style="text;html=1;strokeColor=none;fillColor=none;align=center;verticalAlign=middle;whiteSpace=wrap;rounded=0;" parent="1" vertex="1">
          <mxGeometry x="-485" y="95" width="60" height="30" as="geometry" />
        </mxCell>
        <mxCell id="Ux2NfSEgZfTg27yrWYkO-26" value="«SubSystem»&lt;br&gt;&lt;b&gt;Ticket Seller&lt;/b&gt;" style="html=1;dropTarget=0;whiteSpace=wrap;verticalAlign=top;" parent="1" vertex="1">
          <mxGeometry x="730" y="-120" width="740" height="480" as="geometry" />
        </mxCell>
        <mxCell id="Ux2NfSEgZfTg27yrWYkO-27" value="" style="shape=module;jettyWidth=8;jettyHeight=4;" parent="Ux2NfSEgZfTg27yrWYkO-26" vertex="1">
          <mxGeometry x="1" width="20" height="20" relative="1" as="geometry">
            <mxPoint x="-27" y="7" as="offset" />
          </mxGeometry>
        </mxCell>
        <mxCell id="Ux2NfSEgZfTg27yrWYkO-28" value="" style="rounded=0;orthogonalLoop=1;jettySize=auto;html=1;endArrow=none;endFill=0;sketch=0;sourcePerimeterSpacing=0;targetPerimeterSpacing=0;exitX=0;exitY=0.5;exitDx=0;exitDy=0;" parent="1" source="Ux2NfSEgZfTg27yrWYkO-114" target="Ux2NfSEgZfTg27yrWYkO-30" edge="1">
          <mxGeometry relative="1" as="geometry">
            <mxPoint x="760" y="215" as="sourcePoint" />
          </mxGeometry>
        </mxCell>
        <mxCell id="Ux2NfSEgZfTg27yrWYkO-29" value="" style="rounded=0;orthogonalLoop=1;jettySize=auto;html=1;endArrow=halfCircle;endFill=0;entryX=0.5;entryY=0.5;endSize=6;strokeWidth=1;sketch=0;exitX=1;exitY=0.5;exitDx=0;exitDy=0;" parent="1" source="Ux2NfSEgZfTg27yrWYkO-10" target="Ux2NfSEgZfTg27yrWYkO-30" edge="1">
          <mxGeometry relative="1" as="geometry">
            <mxPoint x="800" y="215" as="sourcePoint" />
          </mxGeometry>
        </mxCell>
        <mxCell id="Ux2NfSEgZfTg27yrWYkO-30" value="" style="ellipse;whiteSpace=wrap;html=1;align=center;aspect=fixed;resizable=0;points=[];outlineConnect=0;sketch=0;" parent="1" vertex="1">
          <mxGeometry x="690" y="125" width="10" height="10" as="geometry" />
        </mxCell>
        <mxCell id="Ux2NfSEgZfTg27yrWYkO-31" value="" style="shape=cylinder3;whiteSpace=wrap;html=1;boundedLbl=1;backgroundOutline=1;size=15;" parent="1" vertex="1">
          <mxGeometry x="1282.5" y="-300" width="55" height="70" as="geometry" />
        </mxCell>
        <mxCell id="Ux2NfSEgZfTg27yrWYkO-32" value="&lt;b&gt;DB Ticket Seller&lt;/b&gt;" style="text;html=1;strokeColor=none;fillColor=none;align=center;verticalAlign=middle;whiteSpace=wrap;rounded=0;" parent="1" vertex="1">
          <mxGeometry x="1280" y="-230" width="60" height="30" as="geometry" />
        </mxCell>
        <mxCell id="Ux2NfSEgZfTg27yrWYkO-39" value="" style="rounded=0;orthogonalLoop=1;jettySize=auto;html=1;endArrow=none;endFill=0;sketch=0;sourcePerimeterSpacing=0;targetPerimeterSpacing=0;exitX=0;exitY=0.5;exitDx=0;exitDy=0;" parent="1" source="Ux2NfSEgZfTg27yrWYkO-23" target="Ux2NfSEgZfTg27yrWYkO-41" edge="1">
          <mxGeometry relative="1" as="geometry">
            <mxPoint x="1810" y="215" as="sourcePoint" />
          </mxGeometry>
        </mxCell>
        <mxCell id="Ux2NfSEgZfTg27yrWYkO-40" value="" style="rounded=0;orthogonalLoop=1;jettySize=auto;html=1;endArrow=halfCircle;endFill=0;entryX=0.5;entryY=0.5;endSize=6;strokeWidth=1;sketch=0;exitX=1;exitY=0.5;exitDx=0;exitDy=0;" parent="1" source="Ux2NfSEgZfTg27yrWYkO-239" target="Ux2NfSEgZfTg27yrWYkO-41" edge="1">
          <mxGeometry relative="1" as="geometry">
            <mxPoint x="1800" y="215" as="sourcePoint" />
          </mxGeometry>
        </mxCell>
        <mxCell id="Ux2NfSEgZfTg27yrWYkO-41" value="" style="ellipse;whiteSpace=wrap;html=1;align=center;aspect=fixed;resizable=0;points=[];outlineConnect=0;sketch=0;" parent="1" vertex="1">
          <mxGeometry x="1950" y="125" width="10" height="10" as="geometry" />
        </mxCell>
        <mxCell id="Ux2NfSEgZfTg27yrWYkO-42" value="" style="rounded=0;orthogonalLoop=1;jettySize=auto;html=1;endArrow=none;endFill=0;sketch=0;sourcePerimeterSpacing=0;targetPerimeterSpacing=0;exitX=0.5;exitY=1;exitDx=0;exitDy=0;" parent="1" source="Ux2NfSEgZfTg27yrWYkO-23" target="Ux2NfSEgZfTg27yrWYkO-44" edge="1">
          <mxGeometry relative="1" as="geometry">
            <mxPoint x="1810" y="215" as="sourcePoint" />
            <Array as="points">
              <mxPoint x="2090" y="265" />
            </Array>
          </mxGeometry>
        </mxCell>
        <mxCell id="Ux2NfSEgZfTg27yrWYkO-43" value="" style="rounded=0;orthogonalLoop=1;jettySize=auto;html=1;endArrow=halfCircle;endFill=0;entryX=0.5;entryY=0.5;endSize=6;strokeWidth=1;sketch=0;exitX=1;exitY=0.5;exitDx=0;exitDy=0;" parent="1" source="Ux2NfSEgZfTg27yrWYkO-21" target="Ux2NfSEgZfTg27yrWYkO-44" edge="1">
          <mxGeometry relative="1" as="geometry">
            <mxPoint x="1800" y="215" as="sourcePoint" />
          </mxGeometry>
        </mxCell>
        <mxCell id="Ux2NfSEgZfTg27yrWYkO-44" value="" style="ellipse;whiteSpace=wrap;html=1;align=center;aspect=fixed;resizable=0;points=[];outlineConnect=0;sketch=0;" parent="1" vertex="1">
          <mxGeometry x="1950" y="260" width="10" height="10" as="geometry" />
        </mxCell>
        <mxCell id="Ux2NfSEgZfTg27yrWYkO-45" value="IPublish" style="text;html=1;strokeColor=none;fillColor=none;align=center;verticalAlign=middle;whiteSpace=wrap;rounded=0;" parent="1" vertex="1">
          <mxGeometry x="1925" y="270" width="60" height="30" as="geometry" />
        </mxCell>
        <mxCell id="Ux2NfSEgZfTg27yrWYkO-46" value="ISubscribe" style="text;html=1;strokeColor=none;fillColor=none;align=center;verticalAlign=middle;whiteSpace=wrap;rounded=0;" parent="1" vertex="1">
          <mxGeometry x="1925" y="95" width="60" height="30" as="geometry" />
        </mxCell>
        <mxCell id="Ux2NfSEgZfTg27yrWYkO-47" value="" style="outlineConnect=0;dashed=0;verticalLabelPosition=bottom;verticalAlign=top;align=center;html=1;shape=mxgraph.aws3.s3;fillColor=#E05243;gradientColor=none;" parent="1" vertex="1">
          <mxGeometry x="-216.85000000000002" y="330" width="78.24" height="93" as="geometry" />
        </mxCell>
        <mxCell id="Ux2NfSEgZfTg27yrWYkO-49" value="" style="rounded=0;orthogonalLoop=1;jettySize=auto;html=1;endArrow=none;endFill=0;sketch=0;sourcePerimeterSpacing=0;targetPerimeterSpacing=0;exitX=0;exitY=0.5;exitDx=0;exitDy=0;" parent="1" source="Ux2NfSEgZfTg27yrWYkO-50" target="Ux2NfSEgZfTg27yrWYkO-50" edge="1">
          <mxGeometry relative="1" as="geometry">
            <mxPoint x="260" y="130" as="sourcePoint" />
            <mxPoint x="-110" y="130" as="targetPoint" />
          </mxGeometry>
        </mxCell>
        <mxCell id="Ux2NfSEgZfTg27yrWYkO-50" value="«System»&lt;br&gt;&lt;b&gt;API Gateway&lt;br&gt;Validation&lt;br&gt;&lt;/b&gt;" style="html=1;dropTarget=0;whiteSpace=wrap;" parent="1" vertex="1">
          <mxGeometry x="-20" y="85" width="180" height="90" as="geometry" />
        </mxCell>
        <mxCell id="Ux2NfSEgZfTg27yrWYkO-51" value="" style="shape=module;jettyWidth=8;jettyHeight=4;" parent="Ux2NfSEgZfTg27yrWYkO-50" vertex="1">
          <mxGeometry x="1" width="20" height="20" relative="1" as="geometry">
            <mxPoint x="-27" y="7" as="offset" />
          </mxGeometry>
        </mxCell>
        <mxCell id="Ux2NfSEgZfTg27yrWYkO-52" value="" style="rounded=0;orthogonalLoop=1;jettySize=auto;html=1;endArrow=none;endFill=0;sketch=0;sourcePerimeterSpacing=0;targetPerimeterSpacing=0;exitX=0;exitY=0.5;exitDx=0;exitDy=0;" parent="1" source="Ux2NfSEgZfTg27yrWYkO-10" target="Ux2NfSEgZfTg27yrWYkO-54" edge="1">
          <mxGeometry relative="1" as="geometry">
            <mxPoint x="470" y="295" as="sourcePoint" />
          </mxGeometry>
        </mxCell>
        <mxCell id="Ux2NfSEgZfTg27yrWYkO-53" value="" style="rounded=0;orthogonalLoop=1;jettySize=auto;html=1;endArrow=halfCircle;endFill=0;entryX=0.5;entryY=0.5;endSize=6;strokeWidth=1;sketch=0;exitX=1;exitY=0.5;exitDx=0;exitDy=0;" parent="1" source="Ux2NfSEgZfTg27yrWYkO-50" target="Ux2NfSEgZfTg27yrWYkO-54" edge="1">
          <mxGeometry relative="1" as="geometry">
            <mxPoint x="250" y="295" as="sourcePoint" />
          </mxGeometry>
        </mxCell>
        <mxCell id="Ux2NfSEgZfTg27yrWYkO-54" value="" style="ellipse;whiteSpace=wrap;html=1;align=center;aspect=fixed;resizable=0;points=[];outlineConnect=0;sketch=0;" parent="1" vertex="1">
          <mxGeometry x="190" y="125" width="10" height="10" as="geometry" />
        </mxCell>
        <mxCell id="Ux2NfSEgZfTg27yrWYkO-55" value="" style="rounded=0;orthogonalLoop=1;jettySize=auto;html=1;endArrow=none;endFill=0;sketch=0;sourcePerimeterSpacing=0;targetPerimeterSpacing=0;exitX=0;exitY=0.5;exitDx=0;exitDy=0;" parent="1" source="Ux2NfSEgZfTg27yrWYkO-50" target="Ux2NfSEgZfTg27yrWYkO-57" edge="1">
          <mxGeometry relative="1" as="geometry">
            <mxPoint x="-170" y="215" as="sourcePoint" />
          </mxGeometry>
        </mxCell>
        <mxCell id="Ux2NfSEgZfTg27yrWYkO-56" value="" style="rounded=0;orthogonalLoop=1;jettySize=auto;html=1;endArrow=halfCircle;endFill=0;entryX=0.5;entryY=0.5;endSize=6;strokeWidth=1;sketch=0;exitX=1;exitY=0.5;exitDx=0;exitDy=0;exitPerimeter=0;" parent="1" source="Ux2NfSEgZfTg27yrWYkO-67" target="Ux2NfSEgZfTg27yrWYkO-57" edge="1">
          <mxGeometry relative="1" as="geometry">
            <mxPoint x="-80" y="130" as="sourcePoint" />
          </mxGeometry>
        </mxCell>
        <mxCell id="Ux2NfSEgZfTg27yrWYkO-57" value="" style="ellipse;whiteSpace=wrap;html=1;align=center;aspect=fixed;resizable=0;points=[];outlineConnect=0;sketch=0;" parent="1" vertex="1">
          <mxGeometry x="-75.53" y="125" width="10" height="10" as="geometry" />
        </mxCell>
        <mxCell id="Ux2NfSEgZfTg27yrWYkO-58" value="" style="sketch=0;points=[[0,0,0],[0.25,0,0],[0.5,0,0],[0.75,0,0],[1,0,0],[0,1,0],[0.25,1,0],[0.5,1,0],[0.75,1,0],[1,1,0],[0,0.25,0],[0,0.5,0],[0,0.75,0],[1,0.25,0],[1,0.5,0],[1,0.75,0]];outlineConnect=0;fontColor=#232F3E;gradientColor=#F78E04;gradientDirection=north;fillColor=#D05C17;strokeColor=#ffffff;dashed=0;verticalLabelPosition=bottom;verticalAlign=top;align=center;html=1;fontSize=12;fontStyle=0;aspect=fixed;shape=mxgraph.aws4.resourceIcon;resIcon=mxgraph.aws4.lambda;" parent="1" vertex="1">
          <mxGeometry x="31" y="-580" width="78" height="78" as="geometry" />
        </mxCell>
        <mxCell id="Ux2NfSEgZfTg27yrWYkO-59" value="" style="rounded=0;orthogonalLoop=1;jettySize=auto;html=1;endArrow=none;endFill=0;sketch=0;sourcePerimeterSpacing=0;targetPerimeterSpacing=0;exitX=0.5;exitY=1;exitDx=0;exitDy=0;" parent="1" source="Ux2NfSEgZfTg27yrWYkO-15" target="Ux2NfSEgZfTg27yrWYkO-61" edge="1">
          <mxGeometry relative="1" as="geometry">
            <mxPoint x="140" y="45" as="sourcePoint" />
          </mxGeometry>
        </mxCell>
        <mxCell id="Ux2NfSEgZfTg27yrWYkO-60" value="" style="rounded=0;orthogonalLoop=1;jettySize=auto;html=1;endArrow=halfCircle;endFill=0;entryX=0.5;entryY=0.5;endSize=6;strokeWidth=1;sketch=0;exitX=0.5;exitY=0;exitDx=0;exitDy=0;exitPerimeter=0;" parent="1" source="Ux2NfSEgZfTg27yrWYkO-67" target="Ux2NfSEgZfTg27yrWYkO-61" edge="1">
          <mxGeometry relative="1" as="geometry">
            <mxPoint x="-180" y="10" as="sourcePoint" />
          </mxGeometry>
        </mxCell>
        <mxCell id="Ux2NfSEgZfTg27yrWYkO-61" value="" style="ellipse;whiteSpace=wrap;html=1;align=center;aspect=fixed;resizable=0;points=[];outlineConnect=0;sketch=0;" parent="1" vertex="1">
          <mxGeometry x="-184.99" y="-50" width="10" height="10" as="geometry" />
        </mxCell>
        <mxCell id="Ux2NfSEgZfTg27yrWYkO-65" value="" style="shape=image;html=1;verticalAlign=top;verticalLabelPosition=bottom;labelBackgroundColor=#ffffff;imageAspect=0;aspect=fixed;image=https://cdn1.iconfinder.com/data/icons/unicons-line-vol-3/24/docker-128.png" parent="1" vertex="1">
          <mxGeometry x="1821" y="442" width="38" height="38" as="geometry" />
        </mxCell>
        <mxCell id="Ux2NfSEgZfTg27yrWYkO-66" value="" style="outlineConnect=0;dashed=0;verticalLabelPosition=bottom;verticalAlign=top;align=center;html=1;shape=mxgraph.aws3.ec2;fillColor=#F58534;gradientColor=none;" parent="1" vertex="1">
          <mxGeometry x="240" y="-370" width="50" height="53" as="geometry" />
        </mxCell>
        <mxCell id="Ux2NfSEgZfTg27yrWYkO-67" value="" style="sketch=0;points=[[0,0,0],[0.25,0,0],[0.5,0,0],[0.75,0,0],[1,0,0],[0,1,0],[0.25,1,0],[0.5,1,0],[0.75,1,0],[1,1,0],[0,0.25,0],[0,0.5,0],[0,0.75,0],[1,0.25,0],[1,0.5,0],[1,0.75,0]];outlineConnect=0;fontColor=#232F3E;gradientColor=#945DF2;gradientDirection=north;fillColor=#5A30B5;strokeColor=#ffffff;dashed=0;verticalLabelPosition=bottom;verticalAlign=top;align=center;html=1;fontSize=12;fontStyle=0;aspect=fixed;shape=mxgraph.aws4.resourceIcon;resIcon=mxgraph.aws4.cloudfront;" parent="1" vertex="1">
          <mxGeometry x="-212.23" y="97.75" width="64.5" height="64.5" as="geometry" />
        </mxCell>
        <mxCell id="Ux2NfSEgZfTg27yrWYkO-68" value="" style="rounded=0;orthogonalLoop=1;jettySize=auto;html=1;endArrow=none;endFill=0;sketch=0;sourcePerimeterSpacing=0;targetPerimeterSpacing=0;exitX=0.5;exitY=0;exitDx=0;exitDy=0;" parent="1" source="Ux2NfSEgZfTg27yrWYkO-3" target="Ux2NfSEgZfTg27yrWYkO-70" edge="1">
          <mxGeometry relative="1" as="geometry">
            <mxPoint x="-89.97999999999999" y="130" as="sourcePoint" />
          </mxGeometry>
        </mxCell>
        <mxCell id="Ux2NfSEgZfTg27yrWYkO-69" value="" style="rounded=0;orthogonalLoop=1;jettySize=auto;html=1;endArrow=halfCircle;endFill=0;entryX=0.5;entryY=0.5;endSize=6;strokeWidth=1;sketch=0;exitX=0.5;exitY=1;exitDx=0;exitDy=0;" parent="1" source="Ux2NfSEgZfTg27yrWYkO-73" target="Ux2NfSEgZfTg27yrWYkO-70" edge="1">
          <mxGeometry relative="1" as="geometry">
            <mxPoint x="-89.97999999999999" y="130" as="sourcePoint" />
            <Array as="points" />
          </mxGeometry>
        </mxCell>
        <mxCell id="Ux2NfSEgZfTg27yrWYkO-70" value="" style="ellipse;whiteSpace=wrap;html=1;align=center;aspect=fixed;resizable=0;points=[];outlineConnect=0;sketch=0;" parent="1" vertex="1">
          <mxGeometry x="-182.73" y="230" width="10" height="10" as="geometry" />
        </mxCell>
        <mxCell id="Ux2NfSEgZfTg27yrWYkO-72" value="Postgresql" style="text;html=1;strokeColor=none;fillColor=none;align=center;verticalAlign=middle;whiteSpace=wrap;rounded=0;" parent="1" vertex="1">
          <mxGeometry x="1320" y="-181.5" width="60" height="30" as="geometry" />
        </mxCell>
        <mxCell id="Ux2NfSEgZfTg27yrWYkO-73" value="CloudFront" style="text;html=1;strokeColor=none;fillColor=none;align=center;verticalAlign=middle;whiteSpace=wrap;rounded=0;" parent="1" vertex="1">
          <mxGeometry x="-207.73" y="162.25" width="60" height="30" as="geometry" />
        </mxCell>
        <mxCell id="Ux2NfSEgZfTg27yrWYkO-74" value="I&lt;br&gt;Request&lt;br&gt;Authentication Token" style="text;html=1;strokeColor=none;fillColor=none;align=center;verticalAlign=middle;whiteSpace=wrap;rounded=0;" parent="1" vertex="1">
          <mxGeometry x="-174.99" y="-60" width="120.86" height="30" as="geometry" />
        </mxCell>
        <mxCell id="Ux2NfSEgZfTg27yrWYkO-75" value="Authentication Validate Token" style="text;html=1;strokeColor=none;fillColor=none;align=center;verticalAlign=middle;whiteSpace=wrap;rounded=0;" parent="1" vertex="1">
          <mxGeometry x="94" y="-60" width="60" height="30" as="geometry" />
        </mxCell>
        <mxCell id="Ux2NfSEgZfTg27yrWYkO-76" value="HTTPS" style="text;html=1;strokeColor=none;fillColor=none;align=center;verticalAlign=middle;whiteSpace=wrap;rounded=0;" parent="1" vertex="1">
          <mxGeometry x="165" y="95" width="60" height="30" as="geometry" />
        </mxCell>
        <mxCell id="Ux2NfSEgZfTg27yrWYkO-79" value="«System»&lt;br&gt;&lt;b&gt;API Pagos&lt;br&gt;&lt;/b&gt;" style="html=1;dropTarget=0;whiteSpace=wrap;" parent="1" vertex="1">
          <mxGeometry x="755" y="-570" width="180" height="90" as="geometry" />
        </mxCell>
        <mxCell id="Ux2NfSEgZfTg27yrWYkO-80" value="" style="shape=module;jettyWidth=8;jettyHeight=4;" parent="Ux2NfSEgZfTg27yrWYkO-79" vertex="1">
          <mxGeometry x="1" width="20" height="20" relative="1" as="geometry">
            <mxPoint x="-27" y="7" as="offset" />
          </mxGeometry>
        </mxCell>
        <mxCell id="Ux2NfSEgZfTg27yrWYkO-81" value="«Component»&lt;br&gt;&lt;b&gt;JobMaster&lt;br&gt;&lt;/b&gt;" style="html=1;dropTarget=0;whiteSpace=wrap;" parent="1" vertex="1">
          <mxGeometry x="755" y="610" width="180" height="90" as="geometry" />
        </mxCell>
        <mxCell id="Ux2NfSEgZfTg27yrWYkO-82" value="" style="shape=module;jettyWidth=8;jettyHeight=4;" parent="Ux2NfSEgZfTg27yrWYkO-81" vertex="1">
          <mxGeometry x="1" width="20" height="20" relative="1" as="geometry">
            <mxPoint x="-27" y="7" as="offset" />
          </mxGeometry>
        </mxCell>
        <mxCell id="Ux2NfSEgZfTg27yrWYkO-83" value="«System»&lt;br&gt;&lt;b&gt;API Externa&lt;br&gt;&lt;/b&gt;" style="html=1;dropTarget=0;whiteSpace=wrap;" parent="1" vertex="1">
          <mxGeometry x="1075" y="750" width="180" height="90" as="geometry" />
        </mxCell>
        <mxCell id="Ux2NfSEgZfTg27yrWYkO-84" value="" style="shape=module;jettyWidth=8;jettyHeight=4;" parent="Ux2NfSEgZfTg27yrWYkO-83" vertex="1">
          <mxGeometry x="1" width="20" height="20" relative="1" as="geometry">
            <mxPoint x="-27" y="7" as="offset" />
          </mxGeometry>
        </mxCell>
        <mxCell id="Ux2NfSEgZfTg27yrWYkO-85" value="«Component»&lt;br&gt;&lt;b&gt;Broker&lt;br&gt;&lt;/b&gt;" style="html=1;dropTarget=0;whiteSpace=wrap;" parent="1" vertex="1">
          <mxGeometry x="1075" y="610" width="180" height="90" as="geometry" />
        </mxCell>
        <mxCell id="Ux2NfSEgZfTg27yrWYkO-86" value="" style="shape=module;jettyWidth=8;jettyHeight=4;" parent="Ux2NfSEgZfTg27yrWYkO-85" vertex="1">
          <mxGeometry x="1" width="20" height="20" relative="1" as="geometry">
            <mxPoint x="-27" y="7" as="offset" />
          </mxGeometry>
        </mxCell>
        <mxCell id="Ux2NfSEgZfTg27yrWYkO-87" value="«System»&lt;br&gt;&lt;b&gt;API Externa&lt;br&gt;&lt;/b&gt;" style="html=1;dropTarget=0;whiteSpace=wrap;" parent="1" vertex="1">
          <mxGeometry x="1085" y="760" width="180" height="90" as="geometry" />
        </mxCell>
        <mxCell id="Ux2NfSEgZfTg27yrWYkO-88" value="" style="shape=module;jettyWidth=8;jettyHeight=4;" parent="Ux2NfSEgZfTg27yrWYkO-87" vertex="1">
          <mxGeometry x="1" width="20" height="20" relative="1" as="geometry">
            <mxPoint x="-27" y="7" as="offset" />
          </mxGeometry>
        </mxCell>
        <mxCell id="Ux2NfSEgZfTg27yrWYkO-89" value="«System»&lt;br&gt;&lt;b&gt;API Externa&lt;br&gt;&lt;/b&gt;" style="html=1;dropTarget=0;whiteSpace=wrap;" parent="1" vertex="1">
          <mxGeometry x="1095" y="770" width="180" height="90" as="geometry" />
        </mxCell>
        <mxCell id="Ux2NfSEgZfTg27yrWYkO-90" value="" style="shape=module;jettyWidth=8;jettyHeight=4;" parent="Ux2NfSEgZfTg27yrWYkO-89" vertex="1">
          <mxGeometry x="1" width="20" height="20" relative="1" as="geometry">
            <mxPoint x="-27" y="7" as="offset" />
          </mxGeometry>
        </mxCell>
        <mxCell id="Ux2NfSEgZfTg27yrWYkO-91" value="«Component»&lt;br&gt;&lt;b&gt;Worker&lt;br&gt;&lt;/b&gt;" style="html=1;dropTarget=0;whiteSpace=wrap;" parent="1" vertex="1">
          <mxGeometry x="1105" y="780" width="180" height="90" as="geometry" />
        </mxCell>
        <mxCell id="Ux2NfSEgZfTg27yrWYkO-92" value="" style="shape=module;jettyWidth=8;jettyHeight=4;" parent="Ux2NfSEgZfTg27yrWYkO-91" vertex="1">
          <mxGeometry x="1" width="20" height="20" relative="1" as="geometry">
            <mxPoint x="-27" y="7" as="offset" />
          </mxGeometry>
        </mxCell>
        <mxCell id="Ux2NfSEgZfTg27yrWYkO-93" value="" style="rounded=0;orthogonalLoop=1;jettySize=auto;html=1;endArrow=none;endFill=0;sketch=0;sourcePerimeterSpacing=0;targetPerimeterSpacing=0;exitX=0;exitY=0.5;exitDx=0;exitDy=0;" parent="1" source="Ux2NfSEgZfTg27yrWYkO-85" target="Ux2NfSEgZfTg27yrWYkO-95" edge="1">
          <mxGeometry relative="1" as="geometry">
            <mxPoint x="990" y="695" as="sourcePoint" />
          </mxGeometry>
        </mxCell>
        <mxCell id="Ux2NfSEgZfTg27yrWYkO-94" value="" style="rounded=0;orthogonalLoop=1;jettySize=auto;html=1;endArrow=halfCircle;endFill=0;entryX=0.5;entryY=0.5;endSize=6;strokeWidth=1;sketch=0;exitX=1;exitY=0.5;exitDx=0;exitDy=0;" parent="1" source="Ux2NfSEgZfTg27yrWYkO-81" target="Ux2NfSEgZfTg27yrWYkO-95" edge="1">
          <mxGeometry relative="1" as="geometry">
            <mxPoint x="1030" y="695" as="sourcePoint" />
          </mxGeometry>
        </mxCell>
        <mxCell id="Ux2NfSEgZfTg27yrWYkO-95" value="" style="ellipse;whiteSpace=wrap;html=1;align=center;aspect=fixed;resizable=0;points=[];outlineConnect=0;sketch=0;" parent="1" vertex="1">
          <mxGeometry x="1000" y="650" width="10" height="10" as="geometry" />
        </mxCell>
        <mxCell id="Ux2NfSEgZfTg27yrWYkO-96" value="" style="rounded=0;orthogonalLoop=1;jettySize=auto;html=1;endArrow=none;endFill=0;sketch=0;sourcePerimeterSpacing=0;targetPerimeterSpacing=0;exitX=0.5;exitY=1;exitDx=0;exitDy=0;" parent="1" source="Ux2NfSEgZfTg27yrWYkO-85" target="Ux2NfSEgZfTg27yrWYkO-98" edge="1">
          <mxGeometry relative="1" as="geometry">
            <mxPoint x="845" y="695" as="sourcePoint" />
          </mxGeometry>
        </mxCell>
        <mxCell id="Ux2NfSEgZfTg27yrWYkO-97" value="" style="rounded=0;orthogonalLoop=1;jettySize=auto;html=1;endArrow=halfCircle;endFill=0;entryX=0.5;entryY=0.5;endSize=6;strokeWidth=1;sketch=0;exitX=0.5;exitY=0;exitDx=0;exitDy=0;" parent="1" source="Ux2NfSEgZfTg27yrWYkO-83" target="Ux2NfSEgZfTg27yrWYkO-98" edge="1">
          <mxGeometry relative="1" as="geometry">
            <mxPoint x="885" y="695" as="sourcePoint" />
          </mxGeometry>
        </mxCell>
        <mxCell id="Ux2NfSEgZfTg27yrWYkO-98" value="" style="ellipse;whiteSpace=wrap;html=1;align=center;aspect=fixed;resizable=0;points=[];outlineConnect=0;sketch=0;" parent="1" vertex="1">
          <mxGeometry x="1160" y="720" width="10" height="10" as="geometry" />
        </mxCell>
        <mxCell id="Ux2NfSEgZfTg27yrWYkO-99" value="IPubSubJobs" style="text;html=1;strokeColor=none;fillColor=none;align=center;verticalAlign=middle;whiteSpace=wrap;rounded=0;" parent="1" vertex="1">
          <mxGeometry x="975" y="660" width="60" height="30" as="geometry" />
        </mxCell>
        <mxCell id="Ux2NfSEgZfTg27yrWYkO-100" value="ISubJobs" style="text;html=1;strokeColor=none;fillColor=none;align=center;verticalAlign=middle;whiteSpace=wrap;rounded=0;" parent="1" vertex="1">
          <mxGeometry x="1095" y="710" width="60" height="30" as="geometry" />
        </mxCell>
        <mxCell id="Ux2NfSEgZfTg27yrWYkO-101" value="" style="shape=image;html=1;verticalAlign=top;verticalLabelPosition=bottom;labelBackgroundColor=#ffffff;imageAspect=0;aspect=fixed;image=https://cdn1.iconfinder.com/data/icons/unicons-line-vol-3/24/docker-128.png" parent="1" vertex="1">
          <mxGeometry x="1255" y="840" width="30" height="30" as="geometry" />
        </mxCell>
        <mxCell id="Ux2NfSEgZfTg27yrWYkO-102" value="Cada Worker tiene su propio container" style="shape=note;whiteSpace=wrap;html=1;backgroundOutline=1;darkOpacity=0.05;" parent="1" vertex="1">
          <mxGeometry x="1430" y="792.5" width="170" height="65" as="geometry" />
        </mxCell>
        <mxCell id="Ux2NfSEgZfTg27yrWYkO-103" value="" style="endArrow=none;dashed=1;html=1;dashPattern=1 3;strokeWidth=2;rounded=0;entryX=0;entryY=0.5;entryDx=0;entryDy=0;entryPerimeter=0;exitX=1;exitY=0.5;exitDx=0;exitDy=0;" parent="1" source="Ux2NfSEgZfTg27yrWYkO-91" target="Ux2NfSEgZfTg27yrWYkO-102" edge="1">
          <mxGeometry width="50" height="50" relative="1" as="geometry">
            <mxPoint x="1165" y="680" as="sourcePoint" />
            <mxPoint x="1425" y="855" as="targetPoint" />
          </mxGeometry>
        </mxCell>
        <mxCell id="Ux2NfSEgZfTg27yrWYkO-107" value="IGetApiData" style="text;html=1;strokeColor=none;fillColor=none;align=center;verticalAlign=middle;whiteSpace=wrap;rounded=0;" parent="1" vertex="1">
          <mxGeometry x="767" y="-240" width="60" height="30" as="geometry" />
        </mxCell>
        <mxCell id="Ux2NfSEgZfTg27yrWYkO-111" value="IManageJobs" style="text;html=1;strokeColor=none;fillColor=none;align=center;verticalAlign=middle;whiteSpace=wrap;rounded=0;" parent="1" vertex="1">
          <mxGeometry x="767" y="504" width="60" height="30" as="geometry" />
        </mxCell>
        <mxCell id="Ux2NfSEgZfTg27yrWYkO-112" value="" style="outlineConnect=0;dashed=0;verticalLabelPosition=bottom;verticalAlign=top;align=center;html=1;shape=mxgraph.aws3.redis;fillColor=#2E73B8;gradientColor=none;" parent="1" vertex="1">
          <mxGeometry x="1225" y="660" width="25" height="30" as="geometry" />
        </mxCell>
        <mxCell id="Ux2NfSEgZfTg27yrWYkO-113" value="" style="shape=image;html=1;verticalAlign=top;verticalLabelPosition=bottom;labelBackgroundColor=#ffffff;imageAspect=0;aspect=fixed;image=https://cdn1.iconfinder.com/data/icons/unicons-line-vol-3/24/docker-128.png" parent="1" vertex="1">
          <mxGeometry x="897" y="662" width="38" height="38" as="geometry" />
        </mxCell>
        <mxCell id="Ux2NfSEgZfTg27yrWYkO-114" value="«Componente»&lt;br&gt;&lt;b&gt;Request Handler&lt;/b&gt;" style="html=1;dropTarget=0;whiteSpace=wrap;" parent="1" vertex="1">
          <mxGeometry x="755" y="85" width="180" height="90" as="geometry" />
        </mxCell>
        <mxCell id="Ux2NfSEgZfTg27yrWYkO-115" value="" style="shape=module;jettyWidth=8;jettyHeight=4;" parent="Ux2NfSEgZfTg27yrWYkO-114" vertex="1">
          <mxGeometry x="1" width="20" height="20" relative="1" as="geometry">
            <mxPoint x="-27" y="7" as="offset" />
          </mxGeometry>
        </mxCell>
        <mxCell id="Ux2NfSEgZfTg27yrWYkO-116" value="«Componente»&lt;br&gt;&lt;b&gt;DB Manager&lt;/b&gt;" style="html=1;dropTarget=0;whiteSpace=wrap;" parent="1" vertex="1">
          <mxGeometry x="1220" y="-47" width="180" height="90" as="geometry" />
        </mxCell>
        <mxCell id="Ux2NfSEgZfTg27yrWYkO-117" value="" style="shape=module;jettyWidth=8;jettyHeight=4;" parent="Ux2NfSEgZfTg27yrWYkO-116" vertex="1">
          <mxGeometry x="1" width="20" height="20" relative="1" as="geometry">
            <mxPoint x="-32" y="8" as="offset" />
          </mxGeometry>
        </mxCell>
        <mxCell id="Ux2NfSEgZfTg27yrWYkO-119" value="«Componente»&lt;br&gt;&lt;b&gt;Data Publisher&lt;/b&gt;" style="html=1;dropTarget=0;whiteSpace=wrap;" parent="1" vertex="1">
          <mxGeometry x="1220" y="220" width="180" height="90" as="geometry" />
        </mxCell>
        <mxCell id="Ux2NfSEgZfTg27yrWYkO-120" value="" style="shape=module;jettyWidth=8;jettyHeight=4;" parent="Ux2NfSEgZfTg27yrWYkO-119" vertex="1">
          <mxGeometry x="1" width="20" height="20" relative="1" as="geometry">
            <mxPoint x="-32" y="8" as="offset" />
          </mxGeometry>
        </mxCell>
        <mxCell id="Ux2NfSEgZfTg27yrWYkO-121" value="«Componente»&lt;br&gt;&lt;b&gt;Jobs Requester&lt;/b&gt;" style="html=1;dropTarget=0;whiteSpace=wrap;" parent="1" vertex="1">
          <mxGeometry x="755" y="220" width="180" height="90" as="geometry" />
        </mxCell>
        <mxCell id="Ux2NfSEgZfTg27yrWYkO-122" value="" style="shape=module;jettyWidth=8;jettyHeight=4;" parent="Ux2NfSEgZfTg27yrWYkO-121" vertex="1">
          <mxGeometry x="1" width="20" height="20" relative="1" as="geometry">
            <mxPoint x="-32" y="8" as="offset" />
          </mxGeometry>
        </mxCell>
        <mxCell id="Ux2NfSEgZfTg27yrWYkO-123" value="«Componente»&lt;br&gt;&lt;b&gt;Central Manager&lt;/b&gt;" style="html=1;dropTarget=0;whiteSpace=wrap;" parent="1" vertex="1">
          <mxGeometry x="990" y="85" width="180" height="90" as="geometry" />
        </mxCell>
        <mxCell id="Ux2NfSEgZfTg27yrWYkO-124" value="" style="shape=module;jettyWidth=8;jettyHeight=4;" parent="Ux2NfSEgZfTg27yrWYkO-123" vertex="1">
          <mxGeometry x="1" width="20" height="20" relative="1" as="geometry">
            <mxPoint x="-27" y="7" as="offset" />
          </mxGeometry>
        </mxCell>
        <mxCell id="Ux2NfSEgZfTg27yrWYkO-129" value="«Componente»&lt;br&gt;&lt;b&gt;External API Requester&lt;/b&gt;" style="html=1;dropTarget=0;whiteSpace=wrap;" parent="1" vertex="1">
          <mxGeometry x="755" y="-47" width="180" height="90" as="geometry" />
        </mxCell>
        <mxCell id="Ux2NfSEgZfTg27yrWYkO-130" value="" style="shape=module;jettyWidth=8;jettyHeight=4;" parent="Ux2NfSEgZfTg27yrWYkO-129" vertex="1">
          <mxGeometry x="1" width="20" height="20" relative="1" as="geometry">
            <mxPoint x="-27" y="7" as="offset" />
          </mxGeometry>
        </mxCell>
        <mxCell id="Ux2NfSEgZfTg27yrWYkO-131" value="" style="rounded=0;orthogonalLoop=1;jettySize=auto;html=1;endArrow=none;endFill=0;sketch=0;sourcePerimeterSpacing=0;targetPerimeterSpacing=0;exitX=0;exitY=0.5;exitDx=0;exitDy=0;" parent="1" source="Ux2NfSEgZfTg27yrWYkO-123" target="Ux2NfSEgZfTg27yrWYkO-133" edge="1">
          <mxGeometry relative="1" as="geometry">
            <mxPoint x="950" y="165" as="sourcePoint" />
          </mxGeometry>
        </mxCell>
        <mxCell id="Ux2NfSEgZfTg27yrWYkO-132" value="" style="rounded=0;orthogonalLoop=1;jettySize=auto;html=1;endArrow=halfCircle;endFill=0;entryX=0.5;entryY=0.5;endSize=6;strokeWidth=1;sketch=0;exitX=1;exitY=0.5;exitDx=0;exitDy=0;" parent="1" source="Ux2NfSEgZfTg27yrWYkO-114" target="Ux2NfSEgZfTg27yrWYkO-133" edge="1">
          <mxGeometry relative="1" as="geometry">
            <mxPoint x="990" y="165" as="sourcePoint" />
          </mxGeometry>
        </mxCell>
        <mxCell id="Ux2NfSEgZfTg27yrWYkO-133" value="" style="ellipse;whiteSpace=wrap;html=1;align=center;aspect=fixed;resizable=0;points=[];outlineConnect=0;sketch=0;" parent="1" vertex="1">
          <mxGeometry x="960" y="125" width="10" height="10" as="geometry" />
        </mxCell>
        <mxCell id="Ux2NfSEgZfTg27yrWYkO-134" value="" style="rounded=0;orthogonalLoop=1;jettySize=auto;html=1;endArrow=none;endFill=0;sketch=0;sourcePerimeterSpacing=0;targetPerimeterSpacing=0;exitX=0;exitY=0.5;exitDx=0;exitDy=0;" parent="1" source="Ux2NfSEgZfTg27yrWYkO-116" target="Ux2NfSEgZfTg27yrWYkO-136" edge="1">
          <mxGeometry relative="1" as="geometry">
            <mxPoint x="1220" as="sourcePoint" />
            <Array as="points">
              <mxPoint x="1125" y="-2" />
            </Array>
          </mxGeometry>
        </mxCell>
        <mxCell id="Ux2NfSEgZfTg27yrWYkO-135" value="" style="rounded=0;orthogonalLoop=1;jettySize=auto;html=1;endArrow=halfCircle;endFill=0;entryX=0.5;entryY=0.5;endSize=6;strokeWidth=1;sketch=0;exitX=0.75;exitY=0;exitDx=0;exitDy=0;" parent="1" source="Ux2NfSEgZfTg27yrWYkO-123" target="Ux2NfSEgZfTg27yrWYkO-136" edge="1">
          <mxGeometry relative="1" as="geometry">
            <mxPoint x="990" y="165" as="sourcePoint" />
          </mxGeometry>
        </mxCell>
        <mxCell id="Ux2NfSEgZfTg27yrWYkO-136" value="" style="ellipse;whiteSpace=wrap;html=1;align=center;aspect=fixed;resizable=0;points=[];outlineConnect=0;sketch=0;" parent="1" vertex="1">
          <mxGeometry x="1120" y="33" width="10" height="10" as="geometry" />
        </mxCell>
        <mxCell id="Ux2NfSEgZfTg27yrWYkO-137" value="" style="rounded=0;orthogonalLoop=1;jettySize=auto;html=1;endArrow=none;endFill=0;sketch=0;sourcePerimeterSpacing=0;targetPerimeterSpacing=0;exitX=0;exitY=0.5;exitDx=0;exitDy=0;" parent="1" source="Ux2NfSEgZfTg27yrWYkO-119" target="Ux2NfSEgZfTg27yrWYkO-139" edge="1">
          <mxGeometry relative="1" as="geometry">
            <mxPoint x="950" y="175" as="sourcePoint" />
            <Array as="points">
              <mxPoint x="1125" y="265" />
            </Array>
          </mxGeometry>
        </mxCell>
        <mxCell id="Ux2NfSEgZfTg27yrWYkO-138" value="" style="rounded=0;orthogonalLoop=1;jettySize=auto;html=1;endArrow=halfCircle;endFill=0;entryX=0.5;entryY=0.5;endSize=6;strokeWidth=1;sketch=0;exitX=0.75;exitY=1;exitDx=0;exitDy=0;" parent="1" source="Ux2NfSEgZfTg27yrWYkO-123" target="Ux2NfSEgZfTg27yrWYkO-139" edge="1">
          <mxGeometry relative="1" as="geometry">
            <mxPoint x="990" y="165" as="sourcePoint" />
          </mxGeometry>
        </mxCell>
        <mxCell id="Ux2NfSEgZfTg27yrWYkO-139" value="" style="ellipse;whiteSpace=wrap;html=1;align=center;aspect=fixed;resizable=0;points=[];outlineConnect=0;sketch=0;" parent="1" vertex="1">
          <mxGeometry x="1120" y="230" width="10" height="10" as="geometry" />
        </mxCell>
        <mxCell id="Ux2NfSEgZfTg27yrWYkO-140" value="" style="rounded=0;orthogonalLoop=1;jettySize=auto;html=1;endArrow=none;endFill=0;sketch=0;sourcePerimeterSpacing=0;targetPerimeterSpacing=0;exitX=1;exitY=0.5;exitDx=0;exitDy=0;" parent="1" source="Ux2NfSEgZfTg27yrWYkO-121" target="Ux2NfSEgZfTg27yrWYkO-142" edge="1">
          <mxGeometry relative="1" as="geometry">
            <mxPoint x="940" y="225" as="sourcePoint" />
            <Array as="points">
              <mxPoint x="1035" y="265" />
            </Array>
          </mxGeometry>
        </mxCell>
        <mxCell id="Ux2NfSEgZfTg27yrWYkO-141" value="" style="rounded=0;orthogonalLoop=1;jettySize=auto;html=1;endArrow=halfCircle;endFill=0;entryX=0.5;entryY=0.5;endSize=6;strokeWidth=1;sketch=0;exitX=0.25;exitY=1;exitDx=0;exitDy=0;" parent="1" source="Ux2NfSEgZfTg27yrWYkO-123" target="Ux2NfSEgZfTg27yrWYkO-142" edge="1">
          <mxGeometry relative="1" as="geometry">
            <mxPoint x="980" y="215" as="sourcePoint" />
          </mxGeometry>
        </mxCell>
        <mxCell id="Ux2NfSEgZfTg27yrWYkO-142" value="" style="ellipse;whiteSpace=wrap;html=1;align=center;aspect=fixed;resizable=0;points=[];outlineConnect=0;sketch=0;" parent="1" vertex="1">
          <mxGeometry x="1030" y="230" width="10" height="10" as="geometry" />
        </mxCell>
        <mxCell id="Ux2NfSEgZfTg27yrWYkO-143" value="" style="rounded=0;orthogonalLoop=1;jettySize=auto;html=1;endArrow=none;endFill=0;sketch=0;sourcePerimeterSpacing=0;targetPerimeterSpacing=0;exitX=1;exitY=0.5;exitDx=0;exitDy=0;" parent="1" source="Ux2NfSEgZfTg27yrWYkO-129" target="Ux2NfSEgZfTg27yrWYkO-145" edge="1">
          <mxGeometry relative="1" as="geometry">
            <mxPoint x="1060" y="35" as="sourcePoint" />
            <Array as="points">
              <mxPoint x="1035" y="-2" />
            </Array>
          </mxGeometry>
        </mxCell>
        <mxCell id="Ux2NfSEgZfTg27yrWYkO-144" value="" style="rounded=0;orthogonalLoop=1;jettySize=auto;html=1;endArrow=halfCircle;endFill=0;entryX=0.5;entryY=0.5;endSize=6;strokeWidth=1;sketch=0;exitX=0.25;exitY=0;exitDx=0;exitDy=0;" parent="1" source="Ux2NfSEgZfTg27yrWYkO-123" target="Ux2NfSEgZfTg27yrWYkO-145" edge="1">
          <mxGeometry relative="1" as="geometry">
            <mxPoint x="1100" y="35" as="sourcePoint" />
          </mxGeometry>
        </mxCell>
        <mxCell id="Ux2NfSEgZfTg27yrWYkO-145" value="" style="ellipse;whiteSpace=wrap;html=1;align=center;aspect=fixed;resizable=0;points=[];outlineConnect=0;sketch=0;" parent="1" vertex="1">
          <mxGeometry x="1030" y="33" width="10" height="10" as="geometry" />
        </mxCell>
        <mxCell id="Ux2NfSEgZfTg27yrWYkO-147" value="«Componente»&lt;br&gt;&lt;b&gt;Administrator Control&lt;/b&gt;" style="html=1;dropTarget=0;whiteSpace=wrap;" parent="1" vertex="1">
          <mxGeometry x="1220" y="85" width="180" height="90" as="geometry" />
        </mxCell>
        <mxCell id="Ux2NfSEgZfTg27yrWYkO-148" value="" style="shape=module;jettyWidth=8;jettyHeight=4;" parent="Ux2NfSEgZfTg27yrWYkO-147" vertex="1">
          <mxGeometry x="1" width="20" height="20" relative="1" as="geometry">
            <mxPoint x="-27" y="7" as="offset" />
          </mxGeometry>
        </mxCell>
        <mxCell id="Ux2NfSEgZfTg27yrWYkO-155" value="" style="rounded=0;orthogonalLoop=1;jettySize=auto;html=1;endArrow=none;endFill=0;sketch=0;sourcePerimeterSpacing=0;targetPerimeterSpacing=0;exitX=0;exitY=0.5;exitDx=0;exitDy=0;" parent="1" source="Ux2NfSEgZfTg27yrWYkO-147" target="Ux2NfSEgZfTg27yrWYkO-157" edge="1">
          <mxGeometry relative="1" as="geometry">
            <mxPoint x="1090" y="145" as="sourcePoint" />
          </mxGeometry>
        </mxCell>
        <mxCell id="Ux2NfSEgZfTg27yrWYkO-156" value="" style="rounded=0;orthogonalLoop=1;jettySize=auto;html=1;endArrow=halfCircle;endFill=0;entryX=0.5;entryY=0.5;endSize=6;strokeWidth=1;sketch=0;exitX=1;exitY=0.5;exitDx=0;exitDy=0;" parent="1" source="Ux2NfSEgZfTg27yrWYkO-123" target="Ux2NfSEgZfTg27yrWYkO-157" edge="1">
          <mxGeometry relative="1" as="geometry">
            <mxPoint x="1130" y="145" as="sourcePoint" />
          </mxGeometry>
        </mxCell>
        <mxCell id="Ux2NfSEgZfTg27yrWYkO-157" value="" style="ellipse;whiteSpace=wrap;html=1;align=center;aspect=fixed;resizable=0;points=[];outlineConnect=0;sketch=0;" parent="1" vertex="1">
          <mxGeometry x="1190" y="125" width="10" height="10" as="geometry" />
        </mxCell>
        <mxCell id="Ux2NfSEgZfTg27yrWYkO-158" value="" style="rounded=0;orthogonalLoop=1;jettySize=auto;html=1;endArrow=none;endFill=0;sketch=0;sourcePerimeterSpacing=0;targetPerimeterSpacing=0;exitX=0.5;exitY=0;exitDx=0;exitDy=0;" parent="1" source="Ux2NfSEgZfTg27yrWYkO-119" target="Ux2NfSEgZfTg27yrWYkO-160" edge="1">
          <mxGeometry relative="1" as="geometry">
            <mxPoint x="1250" y="165" as="sourcePoint" />
          </mxGeometry>
        </mxCell>
        <mxCell id="Ux2NfSEgZfTg27yrWYkO-159" value="" style="rounded=0;orthogonalLoop=1;jettySize=auto;html=1;endArrow=halfCircle;endFill=0;entryX=0.5;entryY=0.5;endSize=6;strokeWidth=1;sketch=0;exitX=0.5;exitY=1;exitDx=0;exitDy=0;" parent="1" source="Ux2NfSEgZfTg27yrWYkO-147" target="Ux2NfSEgZfTg27yrWYkO-160" edge="1">
          <mxGeometry relative="1" as="geometry">
            <mxPoint x="1290" y="165" as="sourcePoint" />
          </mxGeometry>
        </mxCell>
        <mxCell id="Ux2NfSEgZfTg27yrWYkO-160" value="" style="ellipse;whiteSpace=wrap;html=1;align=center;aspect=fixed;resizable=0;points=[];outlineConnect=0;sketch=0;" parent="1" vertex="1">
          <mxGeometry x="1305" y="192.25" width="10" height="10" as="geometry" />
        </mxCell>
        <mxCell id="Ux2NfSEgZfTg27yrWYkO-161" value="" style="rounded=0;orthogonalLoop=1;jettySize=auto;html=1;endArrow=none;endFill=0;sketch=0;sourcePerimeterSpacing=0;targetPerimeterSpacing=0;exitX=1;exitY=0.25;exitDx=0;exitDy=0;" parent="1" source="Ux2NfSEgZfTg27yrWYkO-129" target="Ux2NfSEgZfTg27yrWYkO-163" edge="1">
          <mxGeometry relative="1" as="geometry">
            <mxPoint x="1200" y="115" as="sourcePoint" />
            <Array as="points">
              <mxPoint x="1180" y="-24" />
              <mxPoint x="1180" y="-80" />
              <mxPoint x="1310" y="-80" />
              <mxPoint x="1435" y="-80" />
            </Array>
          </mxGeometry>
        </mxCell>
        <mxCell id="Ux2NfSEgZfTg27yrWYkO-162" value="" style="rounded=0;orthogonalLoop=1;jettySize=auto;html=1;endArrow=halfCircle;endFill=0;entryX=0.5;entryY=0.5;endSize=6;strokeWidth=1;sketch=0;exitX=1;exitY=0.5;exitDx=0;exitDy=0;" parent="1" source="Ux2NfSEgZfTg27yrWYkO-147" target="Ux2NfSEgZfTg27yrWYkO-163" edge="1">
          <mxGeometry relative="1" as="geometry">
            <mxPoint x="1240" y="115" as="sourcePoint" />
            <Array as="points">
              <mxPoint x="1435" y="130" />
            </Array>
          </mxGeometry>
        </mxCell>
        <mxCell id="Ux2NfSEgZfTg27yrWYkO-163" value="" style="ellipse;whiteSpace=wrap;html=1;align=center;aspect=fixed;resizable=0;points=[];outlineConnect=0;sketch=0;" parent="1" vertex="1">
          <mxGeometry x="1430" y="30" width="10" height="10" as="geometry" />
        </mxCell>
        <mxCell id="Ux2NfSEgZfTg27yrWYkO-164" value="" style="rounded=0;orthogonalLoop=1;jettySize=auto;html=1;endArrow=none;endFill=0;sketch=0;sourcePerimeterSpacing=0;targetPerimeterSpacing=0;exitX=0.5;exitY=1;exitDx=0;exitDy=0;" parent="1" source="Ux2NfSEgZfTg27yrWYkO-79" target="Ux2NfSEgZfTg27yrWYkO-166" edge="1">
          <mxGeometry relative="1" as="geometry">
            <mxPoint x="990" y="-125" as="sourcePoint" />
          </mxGeometry>
        </mxCell>
        <mxCell id="Ux2NfSEgZfTg27yrWYkO-165" value="" style="rounded=0;orthogonalLoop=1;jettySize=auto;html=1;endArrow=halfCircle;endFill=0;entryX=0.5;entryY=0.5;endSize=6;strokeWidth=1;sketch=0;exitX=0.5;exitY=0;exitDx=0;exitDy=0;" parent="1" source="Ux2NfSEgZfTg27yrWYkO-129" target="Ux2NfSEgZfTg27yrWYkO-166" edge="1">
          <mxGeometry relative="1" as="geometry">
            <mxPoint x="1030" y="-125" as="sourcePoint" />
          </mxGeometry>
        </mxCell>
        <mxCell id="Ux2NfSEgZfTg27yrWYkO-166" value="" style="ellipse;whiteSpace=wrap;html=1;align=center;aspect=fixed;resizable=0;points=[];outlineConnect=0;sketch=0;" parent="1" vertex="1">
          <mxGeometry x="840" y="-230" width="10" height="10" as="geometry" />
        </mxCell>
        <mxCell id="Ux2NfSEgZfTg27yrWYkO-167" value="" style="rounded=0;orthogonalLoop=1;jettySize=auto;html=1;endArrow=none;endFill=0;sketch=0;sourcePerimeterSpacing=0;targetPerimeterSpacing=0;exitX=0.5;exitY=1;exitDx=0;exitDy=0;" parent="1" source="Ux2NfSEgZfTg27yrWYkO-32" target="Ux2NfSEgZfTg27yrWYkO-169" edge="1">
          <mxGeometry relative="1" as="geometry">
            <mxPoint x="1510" y="-6.5" as="sourcePoint" />
          </mxGeometry>
        </mxCell>
        <mxCell id="Ux2NfSEgZfTg27yrWYkO-168" value="" style="rounded=0;orthogonalLoop=1;jettySize=auto;html=1;endArrow=halfCircle;endFill=0;entryX=0.5;entryY=0.5;endSize=6;strokeWidth=1;sketch=0;exitX=0.5;exitY=0;exitDx=0;exitDy=0;" parent="1" source="Ux2NfSEgZfTg27yrWYkO-116" target="Ux2NfSEgZfTg27yrWYkO-169" edge="1">
          <mxGeometry relative="1" as="geometry">
            <mxPoint x="1550" y="25" as="sourcePoint" />
          </mxGeometry>
        </mxCell>
        <mxCell id="Ux2NfSEgZfTg27yrWYkO-169" value="" style="ellipse;whiteSpace=wrap;html=1;align=center;aspect=fixed;resizable=0;points=[];outlineConnect=0;sketch=0;" parent="1" vertex="1">
          <mxGeometry x="1305" y="-171.5" width="10" height="10" as="geometry" />
        </mxCell>
        <mxCell id="Ux2NfSEgZfTg27yrWYkO-170" value="" style="rounded=0;orthogonalLoop=1;jettySize=auto;html=1;endArrow=none;endFill=0;sketch=0;sourcePerimeterSpacing=0;targetPerimeterSpacing=0;exitX=0;exitY=0.5;exitDx=0;exitDy=0;" parent="1" source="Ux2NfSEgZfTg27yrWYkO-21" target="Ux2NfSEgZfTg27yrWYkO-172" edge="1">
          <mxGeometry relative="1" as="geometry">
            <mxPoint x="1410" y="255" as="sourcePoint" />
          </mxGeometry>
        </mxCell>
        <mxCell id="Ux2NfSEgZfTg27yrWYkO-171" value="" style="rounded=0;orthogonalLoop=1;jettySize=auto;html=1;endArrow=halfCircle;endFill=0;entryX=0.5;entryY=0.5;endSize=6;strokeWidth=1;sketch=0;exitX=1;exitY=0.5;exitDx=0;exitDy=0;" parent="1" source="Ux2NfSEgZfTg27yrWYkO-119" target="Ux2NfSEgZfTg27yrWYkO-172" edge="1">
          <mxGeometry relative="1" as="geometry">
            <mxPoint x="1450" y="255" as="sourcePoint" />
          </mxGeometry>
        </mxCell>
        <mxCell id="Ux2NfSEgZfTg27yrWYkO-172" value="" style="ellipse;whiteSpace=wrap;html=1;align=center;aspect=fixed;resizable=0;points=[];outlineConnect=0;sketch=0;direction=south;" parent="1" vertex="1">
          <mxGeometry x="1530" y="260" width="10" height="10" as="geometry" />
        </mxCell>
        <mxCell id="Ux2NfSEgZfTg27yrWYkO-173" value="IRequestPublisher" style="text;html=1;strokeColor=none;fillColor=none;align=center;verticalAlign=middle;whiteSpace=wrap;rounded=0;" parent="1" vertex="1">
          <mxGeometry x="1505" y="270" width="60" height="30" as="geometry" />
        </mxCell>
        <mxCell id="Ux2NfSEgZfTg27yrWYkO-174" value="" style="rounded=0;orthogonalLoop=1;jettySize=auto;html=1;endArrow=none;endFill=0;sketch=0;sourcePerimeterSpacing=0;targetPerimeterSpacing=0;exitX=1;exitY=0.5;exitDx=0;exitDy=0;exitPerimeter=0;" parent="1" source="Ux2NfSEgZfTg27yrWYkO-31" target="Ux2NfSEgZfTg27yrWYkO-176" edge="1">
          <mxGeometry relative="1" as="geometry">
            <mxPoint x="1700" y="105" as="sourcePoint" />
            <Array as="points">
              <mxPoint x="1720" y="-265" />
            </Array>
          </mxGeometry>
        </mxCell>
        <mxCell id="Ux2NfSEgZfTg27yrWYkO-175" value="" style="rounded=0;orthogonalLoop=1;jettySize=auto;html=1;endArrow=halfCircle;endFill=0;entryX=0.5;entryY=0.5;endSize=6;strokeWidth=1;sketch=0;exitX=0.5;exitY=0;exitDx=0;exitDy=0;" parent="1" source="Ux2NfSEgZfTg27yrWYkO-5" target="Ux2NfSEgZfTg27yrWYkO-176" edge="1">
          <mxGeometry relative="1" as="geometry">
            <mxPoint x="1740" y="105" as="sourcePoint" />
          </mxGeometry>
        </mxCell>
        <mxCell id="Ux2NfSEgZfTg27yrWYkO-176" value="" style="ellipse;whiteSpace=wrap;html=1;align=center;aspect=fixed;resizable=0;points=[];outlineConnect=0;sketch=0;" parent="1" vertex="1">
          <mxGeometry x="1715" y="-191.5" width="10" height="10" as="geometry" />
        </mxCell>
        <mxCell id="Ux2NfSEgZfTg27yrWYkO-177" value="IProcessEvent" style="text;html=1;strokeColor=none;fillColor=none;align=center;verticalAlign=middle;whiteSpace=wrap;rounded=0;" parent="1" vertex="1">
          <mxGeometry x="1740" y="-201.5" width="60" height="30" as="geometry" />
        </mxCell>
        <mxCell id="Ux2NfSEgZfTg27yrWYkO-178" value="" style="rounded=0;orthogonalLoop=1;jettySize=auto;html=1;endArrow=none;endFill=0;sketch=0;sourcePerimeterSpacing=0;targetPerimeterSpacing=0;exitX=0.5;exitY=0;exitDx=0;exitDy=0;" parent="1" source="Ux2NfSEgZfTg27yrWYkO-219" target="Ux2NfSEgZfTg27yrWYkO-180" edge="1">
          <mxGeometry relative="1" as="geometry">
            <mxPoint x="980" y="445.5" as="sourcePoint" />
          </mxGeometry>
        </mxCell>
        <mxCell id="Ux2NfSEgZfTg27yrWYkO-179" value="" style="rounded=0;orthogonalLoop=1;jettySize=auto;html=1;endArrow=halfCircle;endFill=0;entryX=0.5;entryY=0.5;endSize=6;strokeWidth=1;sketch=0;exitX=0.5;exitY=1;exitDx=0;exitDy=0;" parent="1" source="Ux2NfSEgZfTg27yrWYkO-121" target="Ux2NfSEgZfTg27yrWYkO-180" edge="1">
          <mxGeometry relative="1" as="geometry">
            <mxPoint x="1020" y="485" as="sourcePoint" />
          </mxGeometry>
        </mxCell>
        <mxCell id="Ux2NfSEgZfTg27yrWYkO-180" value="" style="ellipse;whiteSpace=wrap;html=1;align=center;aspect=fixed;resizable=0;points=[];outlineConnect=0;sketch=0;" parent="1" vertex="1">
          <mxGeometry x="840" y="514" width="10" height="10" as="geometry" />
        </mxCell>
        <mxCell id="Ux2NfSEgZfTg27yrWYkO-181" value="" style="sketch=0;points=[[0,0,0],[0.25,0,0],[0.5,0,0],[0.75,0,0],[1,0,0],[0,1,0],[0.25,1,0],[0.5,1,0],[0.75,1,0],[1,1,0],[0,0.25,0],[0,0.5,0],[0,0.75,0],[1,0.25,0],[1,0.5,0],[1,0.75,0]];outlineConnect=0;fontColor=#232F3E;gradientColor=#F78E04;gradientDirection=north;fillColor=#D05C17;strokeColor=#ffffff;dashed=0;verticalLabelPosition=bottom;verticalAlign=top;align=center;html=1;fontSize=12;fontStyle=0;aspect=fixed;shape=mxgraph.aws4.resourceIcon;resIcon=mxgraph.aws4.lambda;" parent="1" vertex="1">
          <mxGeometry x="2338" y="-111.5" width="78" height="78" as="geometry" />
        </mxCell>
        <mxCell id="Ux2NfSEgZfTg27yrWYkO-184" value="«Componente»&lt;br&gt;&lt;b&gt;API Gateway&lt;br&gt;PDF Converter&lt;br&gt;&lt;/b&gt;" style="html=1;dropTarget=0;whiteSpace=wrap;" parent="1" vertex="1">
          <mxGeometry x="2088" y="-117.5" width="180" height="90" as="geometry" />
        </mxCell>
        <mxCell id="Ux2NfSEgZfTg27yrWYkO-185" value="" style="shape=module;jettyWidth=8;jettyHeight=4;" parent="Ux2NfSEgZfTg27yrWYkO-184" vertex="1">
          <mxGeometry x="1" width="20" height="20" relative="1" as="geometry">
            <mxPoint x="-27" y="7" as="offset" />
          </mxGeometry>
        </mxCell>
        <mxCell id="Ux2NfSEgZfTg27yrWYkO-191" value="«Componente»&lt;br&gt;&lt;b&gt;Relic Monitoring&lt;/b&gt;" style="html=1;dropTarget=0;whiteSpace=wrap;" parent="1" vertex="1">
          <mxGeometry x="250" y="-47" width="180" height="90" as="geometry" />
        </mxCell>
        <mxCell id="Ux2NfSEgZfTg27yrWYkO-192" value="" style="shape=module;jettyWidth=8;jettyHeight=4;" parent="Ux2NfSEgZfTg27yrWYkO-191" vertex="1">
          <mxGeometry x="1" width="20" height="20" relative="1" as="geometry">
            <mxPoint x="-32" y="8" as="offset" />
          </mxGeometry>
        </mxCell>
        <mxCell id="Ux2NfSEgZfTg27yrWYkO-194" value="«System»&lt;br&gt;&lt;b&gt;Relic Web API&lt;br&gt;&lt;/b&gt;" style="html=1;dropTarget=0;whiteSpace=wrap;" parent="1" vertex="1">
          <mxGeometry x="250" y="-570" width="180" height="90" as="geometry" />
        </mxCell>
        <mxCell id="Ux2NfSEgZfTg27yrWYkO-195" value="" style="shape=module;jettyWidth=8;jettyHeight=4;" parent="Ux2NfSEgZfTg27yrWYkO-194" vertex="1">
          <mxGeometry x="1" width="20" height="20" relative="1" as="geometry">
            <mxPoint x="-27" y="7" as="offset" />
          </mxGeometry>
        </mxCell>
        <mxCell id="Ux2NfSEgZfTg27yrWYkO-196" value="" style="rounded=0;orthogonalLoop=1;jettySize=auto;html=1;endArrow=none;endFill=0;sketch=0;sourcePerimeterSpacing=0;targetPerimeterSpacing=0;exitX=0;exitY=0.5;exitDx=0;exitDy=0;exitPerimeter=0;" parent="1" source="Ux2NfSEgZfTg27yrWYkO-181" target="Ux2NfSEgZfTg27yrWYkO-198" edge="1">
          <mxGeometry relative="1" as="geometry">
            <mxPoint x="2408" y="-26.5" as="sourcePoint" />
          </mxGeometry>
        </mxCell>
        <mxCell id="Ux2NfSEgZfTg27yrWYkO-197" value="" style="rounded=0;orthogonalLoop=1;jettySize=auto;html=1;endArrow=halfCircle;endFill=0;entryX=0.5;entryY=0.5;endSize=6;strokeWidth=1;sketch=0;exitX=1;exitY=0.5;exitDx=0;exitDy=0;" parent="1" source="Ux2NfSEgZfTg27yrWYkO-184" target="Ux2NfSEgZfTg27yrWYkO-198" edge="1">
          <mxGeometry relative="1" as="geometry">
            <mxPoint x="2448" y="-26.5" as="sourcePoint" />
          </mxGeometry>
        </mxCell>
        <mxCell id="Ux2NfSEgZfTg27yrWYkO-198" value="" style="ellipse;whiteSpace=wrap;html=1;align=center;aspect=fixed;resizable=0;points=[];outlineConnect=0;sketch=0;" parent="1" vertex="1">
          <mxGeometry x="2298" y="-77.5" width="10" height="10" as="geometry" />
        </mxCell>
        <mxCell id="Ux2NfSEgZfTg27yrWYkO-209" value="" style="rounded=0;orthogonalLoop=1;jettySize=auto;html=1;endArrow=none;endFill=0;sketch=0;sourcePerimeterSpacing=0;targetPerimeterSpacing=0;exitX=0.5;exitY=1;exitDx=0;exitDy=0;" parent="1" source="Ux2NfSEgZfTg27yrWYkO-194" target="Ux2NfSEgZfTg27yrWYkO-211" edge="1">
          <mxGeometry relative="1" as="geometry">
            <mxPoint x="750" y="-135" as="sourcePoint" />
          </mxGeometry>
        </mxCell>
        <mxCell id="Ux2NfSEgZfTg27yrWYkO-210" value="" style="rounded=0;orthogonalLoop=1;jettySize=auto;html=1;endArrow=halfCircle;endFill=0;entryX=0.5;entryY=0.5;endSize=6;strokeWidth=1;sketch=0;exitX=0.5;exitY=0;exitDx=0;exitDy=0;" parent="1" source="Ux2NfSEgZfTg27yrWYkO-191" target="Ux2NfSEgZfTg27yrWYkO-211" edge="1">
          <mxGeometry relative="1" as="geometry">
            <mxPoint x="790" y="-135" as="sourcePoint" />
          </mxGeometry>
        </mxCell>
        <mxCell id="Ux2NfSEgZfTg27yrWYkO-211" value="" style="ellipse;whiteSpace=wrap;html=1;align=center;aspect=fixed;resizable=0;points=[];outlineConnect=0;sketch=0;" parent="1" vertex="1">
          <mxGeometry x="335" y="-157" width="10" height="10" as="geometry" />
        </mxCell>
        <mxCell id="Ux2NfSEgZfTg27yrWYkO-212" value="IConnectWebAPI" style="text;html=1;strokeColor=none;fillColor=none;align=center;verticalAlign=middle;whiteSpace=wrap;rounded=0;" parent="1" vertex="1">
          <mxGeometry x="370" y="-167" width="60" height="30" as="geometry" />
        </mxCell>
        <mxCell id="Ux2NfSEgZfTg27yrWYkO-214" value="" style="rounded=0;orthogonalLoop=1;jettySize=auto;html=1;endArrow=none;endFill=0;sketch=0;sourcePerimeterSpacing=0;targetPerimeterSpacing=0;" parent="1" target="Ux2NfSEgZfTg27yrWYkO-216" edge="1">
          <mxGeometry relative="1" as="geometry">
            <mxPoint x="460" y="-2" as="sourcePoint" />
          </mxGeometry>
        </mxCell>
        <mxCell id="Ux2NfSEgZfTg27yrWYkO-215" value="" style="rounded=0;orthogonalLoop=1;jettySize=auto;html=1;endArrow=halfCircle;endFill=0;entryX=0.5;entryY=0.5;endSize=6;strokeWidth=1;sketch=0;exitX=1;exitY=0.5;exitDx=0;exitDy=0;" parent="1" source="Ux2NfSEgZfTg27yrWYkO-191" target="Ux2NfSEgZfTg27yrWYkO-216" edge="1">
          <mxGeometry relative="1" as="geometry">
            <mxPoint x="800" y="115" as="sourcePoint" />
          </mxGeometry>
        </mxCell>
        <mxCell id="Ux2NfSEgZfTg27yrWYkO-216" value="" style="ellipse;whiteSpace=wrap;html=1;align=center;aspect=fixed;resizable=0;points=[];outlineConnect=0;sketch=0;" parent="1" vertex="1">
          <mxGeometry x="440" y="-7" width="10" height="10" as="geometry" />
        </mxCell>
        <mxCell id="Ux2NfSEgZfTg27yrWYkO-217" value="IMonitor" style="text;html=1;strokeColor=none;fillColor=none;align=center;verticalAlign=middle;whiteSpace=wrap;rounded=0;" parent="1" vertex="1">
          <mxGeometry x="420" y="-40" width="60" height="30" as="geometry" />
        </mxCell>
        <mxCell id="Ux2NfSEgZfTg27yrWYkO-220" value="" style="rounded=0;orthogonalLoop=1;jettySize=auto;html=1;endArrow=none;endFill=0;sketch=0;sourcePerimeterSpacing=0;targetPerimeterSpacing=0;exitX=0.5;exitY=0;exitDx=0;exitDy=0;" parent="1" source="Ux2NfSEgZfTg27yrWYkO-81" target="Ux2NfSEgZfTg27yrWYkO-219" edge="1">
          <mxGeometry relative="1" as="geometry">
            <mxPoint x="845" y="610" as="sourcePoint" />
            <mxPoint x="845" y="524" as="targetPoint" />
          </mxGeometry>
        </mxCell>
        <mxCell id="Ux2NfSEgZfTg27yrWYkO-219" value="" style="rounded=0;whiteSpace=wrap;html=1;" parent="1" vertex="1">
          <mxGeometry x="835" y="551.5" width="20" height="20" as="geometry" />
        </mxCell>
        <mxCell id="Ux2NfSEgZfTg27yrWYkO-221" value="" style="rounded=0;whiteSpace=wrap;html=1;" parent="1" vertex="1">
          <mxGeometry x="1300" y="-127" width="20" height="20" as="geometry" />
        </mxCell>
        <mxCell id="Ux2NfSEgZfTg27yrWYkO-223" value="" style="rounded=0;whiteSpace=wrap;html=1;" parent="1" vertex="1">
          <mxGeometry x="1460" y="255" width="20" height="20" as="geometry" />
        </mxCell>
        <mxCell id="Ux2NfSEgZfTg27yrWYkO-225" value="" style="rounded=0;whiteSpace=wrap;html=1;" parent="1" vertex="1">
          <mxGeometry x="835" y="350" width="20" height="20" as="geometry" />
        </mxCell>
        <mxCell id="Ux2NfSEgZfTg27yrWYkO-226" value="" style="rounded=0;whiteSpace=wrap;html=1;" parent="1" vertex="1">
          <mxGeometry x="835" y="474" width="20" height="20" as="geometry" />
        </mxCell>
        <mxCell id="Ux2NfSEgZfTg27yrWYkO-227" value="" style="rounded=0;whiteSpace=wrap;html=1;" parent="1" vertex="1">
          <mxGeometry x="720" y="120" width="20" height="20" as="geometry" />
        </mxCell>
        <mxCell id="Ux2NfSEgZfTg27yrWYkO-228" value="" style="rounded=0;whiteSpace=wrap;html=1;" parent="1" vertex="1">
          <mxGeometry x="720" y="-12" width="20" height="20" as="geometry" />
        </mxCell>
        <mxCell id="Ux2NfSEgZfTg27yrWYkO-229" value="" style="rounded=0;whiteSpace=wrap;html=1;" parent="1" vertex="1">
          <mxGeometry x="835" y="-132" width="20" height="20" as="geometry" />
        </mxCell>
        <mxCell id="Ux2NfSEgZfTg27yrWYkO-230" value="" style="rounded=0;whiteSpace=wrap;html=1;" parent="1" vertex="1">
          <mxGeometry x="1910" y="120" width="20" height="20" as="geometry" />
        </mxCell>
        <mxCell id="Ux2NfSEgZfTg27yrWYkO-231" value="" style="rounded=0;whiteSpace=wrap;html=1;" parent="1" vertex="1">
          <mxGeometry x="1880" y="255" width="20" height="20" as="geometry" />
        </mxCell>
        <mxCell id="Ux2NfSEgZfTg27yrWYkO-235" value="" style="rounded=0;whiteSpace=wrap;html=1;" parent="1" vertex="1">
          <mxGeometry x="1850" y="255" width="20" height="20" as="geometry" />
        </mxCell>
        <mxCell id="Ux2NfSEgZfTg27yrWYkO-236" value="" style="rounded=0;whiteSpace=wrap;html=1;" parent="1" vertex="1">
          <mxGeometry x="1821" y="255" width="20" height="20" as="geometry" />
        </mxCell>
        <mxCell id="Ux2NfSEgZfTg27yrWYkO-237" value="" style="rounded=0;whiteSpace=wrap;html=1;" parent="1" vertex="1">
          <mxGeometry x="1910" y="255" width="20" height="20" as="geometry" />
        </mxCell>
        <mxCell id="Ux2NfSEgZfTg27yrWYkO-240" value="" style="rounded=0;orthogonalLoop=1;jettySize=auto;html=1;endArrow=halfCircle;endFill=0;entryX=0.5;entryY=0.5;endSize=6;strokeWidth=1;sketch=0;exitX=1;exitY=0.5;exitDx=0;exitDy=0;" parent="1" source="Ux2NfSEgZfTg27yrWYkO-19" target="Ux2NfSEgZfTg27yrWYkO-239" edge="1">
          <mxGeometry relative="1" as="geometry">
            <mxPoint x="1810" y="130" as="sourcePoint" />
            <mxPoint x="1955" y="130" as="targetPoint" />
          </mxGeometry>
        </mxCell>
        <mxCell id="Ux2NfSEgZfTg27yrWYkO-239" value="" style="rounded=0;whiteSpace=wrap;html=1;" parent="1" vertex="1">
          <mxGeometry x="1880" y="120" width="20" height="20" as="geometry" />
        </mxCell>
        <mxCell id="Ux2NfSEgZfTg27yrWYkO-233" value="" style="rounded=0;whiteSpace=wrap;html=1;" parent="1" vertex="1">
          <mxGeometry x="1850" y="120" width="20" height="20" as="geometry" />
        </mxCell>
        <mxCell id="Ux2NfSEgZfTg27yrWYkO-234" value="" style="rounded=0;whiteSpace=wrap;html=1;" parent="1" vertex="1">
          <mxGeometry x="1821" y="120" width="20" height="20" as="geometry" />
        </mxCell>
        <mxCell id="Ux2NfSEgZfTg27yrWYkO-245" value="" style="rounded=0;whiteSpace=wrap;html=1;" parent="1" vertex="1">
          <mxGeometry x="220" y="120" width="20" height="20" as="geometry" />
        </mxCell>
        <mxCell id="Ux2NfSEgZfTg27yrWYkO-246" value="" style="rounded=0;whiteSpace=wrap;html=1;" parent="1" vertex="1">
          <mxGeometry x="-410" y="120" width="20" height="20" as="geometry" />
        </mxCell>
        <mxCell id="Ux2NfSEgZfTg27yrWYkO-247" value="" style="rounded=0;whiteSpace=wrap;html=1;" parent="1" vertex="1">
          <mxGeometry x="-188.6" y="-440" width="20" height="20" as="geometry" />
        </mxCell>
        <mxCell id="Ux2NfSEgZfTg27yrWYkO-248" value="" style="rounded=0;whiteSpace=wrap;html=1;" parent="1" vertex="1">
          <mxGeometry x="60" y="-440" width="20" height="20" as="geometry" />
        </mxCell>
        <mxCell id="Ux2NfSEgZfTg27yrWYkO-249" value="" style="rounded=0;whiteSpace=wrap;html=1;" parent="1" vertex="1">
          <mxGeometry x="330" y="-440" width="20" height="20" as="geometry" />
        </mxCell>
        <mxCell id="Ux2NfSEgZfTg27yrWYkO-250" value="" style="rounded=0;whiteSpace=wrap;html=1;" parent="1" vertex="1">
          <mxGeometry x="835" y="-440" width="20" height="20" as="geometry" />
        </mxCell>
        <mxCell id="Ux2NfSEgZfTg27yrWYkO-252" value="" style="rounded=0;orthogonalLoop=1;jettySize=auto;html=1;endArrow=none;endFill=0;sketch=0;sourcePerimeterSpacing=0;targetPerimeterSpacing=0;exitX=0;exitY=0.5;exitDx=0;exitDy=0;" parent="1" source="Ux2NfSEgZfTg27yrWYkO-2" target="Ux2NfSEgZfTg27yrWYkO-254" edge="1">
          <mxGeometry relative="1" as="geometry">
            <mxPoint x="490" y="295" as="sourcePoint" />
            <Array as="points">
              <mxPoint x="340" y="735" />
            </Array>
          </mxGeometry>
        </mxCell>
        <mxCell id="Ux2NfSEgZfTg27yrWYkO-253" value="" style="rounded=0;orthogonalLoop=1;jettySize=auto;html=1;endArrow=halfCircle;endFill=0;entryX=0.5;entryY=0.5;endSize=6;strokeWidth=1;sketch=0;exitX=0.5;exitY=1;exitDx=0;exitDy=0;" parent="1" source="Ux2NfSEgZfTg27yrWYkO-191" target="Ux2NfSEgZfTg27yrWYkO-254" edge="1">
          <mxGeometry relative="1" as="geometry">
            <mxPoint x="530" y="295" as="sourcePoint" />
          </mxGeometry>
        </mxCell>
        <mxCell id="Ux2NfSEgZfTg27yrWYkO-254" value="" style="ellipse;whiteSpace=wrap;html=1;align=center;aspect=fixed;resizable=0;points=[];outlineConnect=0;sketch=0;" parent="1" vertex="1">
          <mxGeometry x="335" y="310" width="10" height="10" as="geometry" />
        </mxCell>
        <mxCell id="Ux2NfSEgZfTg27yrWYkO-255" value="IMonitor" style="text;html=1;strokeColor=none;fillColor=none;align=center;verticalAlign=middle;whiteSpace=wrap;rounded=0;" parent="1" vertex="1">
          <mxGeometry x="345" y="300" width="60" height="30" as="geometry" />
        </mxCell>
        <mxCell id="Ux2NfSEgZfTg27yrWYkO-256" value="" style="rounded=0;whiteSpace=wrap;html=1;" parent="1" vertex="1">
          <mxGeometry x="330" y="120" width="20" height="20" as="geometry" />
        </mxCell>
        <mxCell id="Ux2NfSEgZfTg27yrWYkO-257" value="" style="rounded=0;whiteSpace=wrap;html=1;" parent="1" vertex="1">
          <mxGeometry x="450" y="120" width="20" height="20" as="geometry" />
        </mxCell>
        <mxCell id="uhilBMB9BlpQ-PXIjqh4-8" value="«Componente»&lt;br&gt;&lt;b&gt;PDF Requester&lt;/b&gt;" style="html=1;dropTarget=0;whiteSpace=wrap;" vertex="1" parent="1">
          <mxGeometry x="1630" y="-50" width="180" height="90" as="geometry" />
        </mxCell>
        <mxCell id="uhilBMB9BlpQ-PXIjqh4-9" value="" style="shape=module;jettyWidth=8;jettyHeight=4;" vertex="1" parent="uhilBMB9BlpQ-PXIjqh4-8">
          <mxGeometry x="1" width="20" height="20" relative="1" as="geometry">
            <mxPoint x="-32" y="8" as="offset" />
          </mxGeometry>
        </mxCell>
        <mxCell id="uhilBMB9BlpQ-PXIjqh4-10" value="" style="rounded=0;orthogonalLoop=1;jettySize=auto;html=1;endArrow=none;endFill=0;sketch=0;sourcePerimeterSpacing=0;targetPerimeterSpacing=0;exitX=0.5;exitY=0;exitDx=0;exitDy=0;" edge="1" target="uhilBMB9BlpQ-PXIjqh4-12" parent="1" source="Ux2NfSEgZfTg27yrWYkO-19">
          <mxGeometry relative="1" as="geometry">
            <mxPoint x="1820" y="65" as="sourcePoint" />
          </mxGeometry>
        </mxCell>
        <mxCell id="uhilBMB9BlpQ-PXIjqh4-11" value="" style="rounded=0;orthogonalLoop=1;jettySize=auto;html=1;endArrow=halfCircle;endFill=0;entryX=0.5;entryY=0.5;endSize=6;strokeWidth=1;sketch=0;exitX=0.5;exitY=1;exitDx=0;exitDy=0;" edge="1" target="uhilBMB9BlpQ-PXIjqh4-12" parent="1" source="uhilBMB9BlpQ-PXIjqh4-8">
          <mxGeometry relative="1" as="geometry">
            <mxPoint x="1860" y="65" as="sourcePoint" />
          </mxGeometry>
        </mxCell>
        <mxCell id="uhilBMB9BlpQ-PXIjqh4-12" value="" style="ellipse;whiteSpace=wrap;html=1;align=center;aspect=fixed;resizable=0;points=[];outlineConnect=0;sketch=0;" vertex="1" parent="1">
          <mxGeometry x="1715" y="60" width="10" height="10" as="geometry" />
        </mxCell>
        <mxCell id="uhilBMB9BlpQ-PXIjqh4-14" value="IRequestValidation" style="text;html=1;strokeColor=none;fillColor=none;align=center;verticalAlign=middle;whiteSpace=wrap;rounded=0;" vertex="1" parent="1">
          <mxGeometry x="1750" y="47.5" width="60" height="30" as="geometry" />
        </mxCell>
        <mxCell id="uhilBMB9BlpQ-PXIjqh4-16" value="" style="rounded=0;orthogonalLoop=1;jettySize=auto;html=1;endArrow=none;endFill=0;sketch=0;sourcePerimeterSpacing=0;targetPerimeterSpacing=0;exitX=0;exitY=0.5;exitDx=0;exitDy=0;" edge="1" target="uhilBMB9BlpQ-PXIjqh4-18" parent="1" source="Ux2NfSEgZfTg27yrWYkO-184">
          <mxGeometry relative="1" as="geometry">
            <mxPoint x="1720" y="5" as="sourcePoint" />
            <Array as="points">
              <mxPoint x="2030" y="-72" />
              <mxPoint x="2030" y="-5" />
            </Array>
          </mxGeometry>
        </mxCell>
        <mxCell id="uhilBMB9BlpQ-PXIjqh4-17" value="" style="rounded=0;orthogonalLoop=1;jettySize=auto;html=1;endArrow=halfCircle;endFill=0;entryX=0.5;entryY=0.5;endSize=6;strokeWidth=1;sketch=0;exitX=1;exitY=0.5;exitDx=0;exitDy=0;" edge="1" target="uhilBMB9BlpQ-PXIjqh4-18" parent="1" source="uhilBMB9BlpQ-PXIjqh4-8">
          <mxGeometry relative="1" as="geometry">
            <mxPoint x="1760" y="5" as="sourcePoint" />
          </mxGeometry>
        </mxCell>
        <mxCell id="uhilBMB9BlpQ-PXIjqh4-18" value="" style="ellipse;whiteSpace=wrap;html=1;align=center;aspect=fixed;resizable=0;points=[];outlineConnect=0;sketch=0;" vertex="1" parent="1">
          <mxGeometry x="1975" y="-10" width="10" height="10" as="geometry" />
        </mxCell>
        <mxCell id="uhilBMB9BlpQ-PXIjqh4-19" value="IRequestPDF" style="text;html=1;strokeColor=none;fillColor=none;align=center;verticalAlign=middle;whiteSpace=wrap;rounded=0;" vertex="1" parent="1">
          <mxGeometry x="1950" width="60" height="30" as="geometry" />
        </mxCell>
        <mxCell id="uhilBMB9BlpQ-PXIjqh4-20" value="" style="rounded=0;whiteSpace=wrap;html=1;" vertex="1" parent="1">
          <mxGeometry x="1821" y="-15" width="20" height="20" as="geometry" />
        </mxCell>
        <mxCell id="uhilBMB9BlpQ-PXIjqh4-21" value="" style="rounded=0;whiteSpace=wrap;html=1;" vertex="1" parent="1">
          <mxGeometry x="1850" y="-15" width="20" height="20" as="geometry" />
        </mxCell>
        <mxCell id="uhilBMB9BlpQ-PXIjqh4-22" value="" style="rounded=0;whiteSpace=wrap;html=1;" vertex="1" parent="1">
          <mxGeometry x="1880" y="-15" width="20" height="20" as="geometry" />
        </mxCell>
        <mxCell id="uhilBMB9BlpQ-PXIjqh4-23" value="" style="rounded=0;whiteSpace=wrap;html=1;" vertex="1" parent="1">
          <mxGeometry x="1910" y="-15" width="20" height="20" as="geometry" />
        </mxCell>
        <mxCell id="uhilBMB9BlpQ-PXIjqh4-26" value="«SubSystem»&lt;br&gt;&lt;b&gt;Email Sender&lt;/b&gt;" style="html=1;whiteSpace=wrap;verticalAlign=top;" vertex="1" parent="1">
          <mxGeometry x="2000" y="-470" width="220" height="160" as="geometry" />
        </mxCell>
        <mxCell id="uhilBMB9BlpQ-PXIjqh4-27" value="«Componente»&lt;br&gt;&lt;b&gt;API Sendgrid&lt;/b&gt;" style="html=1;dropTarget=0;whiteSpace=wrap;" vertex="1" parent="1">
          <mxGeometry x="2020" y="-420" width="180" height="90" as="geometry" />
        </mxCell>
        <mxCell id="uhilBMB9BlpQ-PXIjqh4-28" value="" style="shape=module;jettyWidth=8;jettyHeight=4;" vertex="1" parent="uhilBMB9BlpQ-PXIjqh4-27">
          <mxGeometry x="1" width="20" height="20" relative="1" as="geometry">
            <mxPoint x="-27" y="7" as="offset" />
          </mxGeometry>
        </mxCell>
        <mxCell id="uhilBMB9BlpQ-PXIjqh4-29" value="" style="rounded=0;orthogonalLoop=1;jettySize=auto;html=1;endArrow=none;endFill=0;sketch=0;sourcePerimeterSpacing=0;targetPerimeterSpacing=0;exitX=0;exitY=0.5;exitDx=0;exitDy=0;" edge="1" target="uhilBMB9BlpQ-PXIjqh4-31" parent="1" source="uhilBMB9BlpQ-PXIjqh4-27">
          <mxGeometry relative="1" as="geometry">
            <mxPoint x="1890" y="-95" as="sourcePoint" />
            <Array as="points">
              <mxPoint x="1980" y="-375" />
              <mxPoint x="1980" y="-82" />
            </Array>
          </mxGeometry>
        </mxCell>
        <mxCell id="uhilBMB9BlpQ-PXIjqh4-30" value="" style="rounded=0;orthogonalLoop=1;jettySize=auto;html=1;endArrow=halfCircle;endFill=0;entryX=0.5;entryY=0.5;endSize=6;strokeWidth=1;sketch=0;exitX=0.5;exitY=0;exitDx=0;exitDy=0;" edge="1" target="uhilBMB9BlpQ-PXIjqh4-31" parent="1" source="uhilBMB9BlpQ-PXIjqh4-8">
          <mxGeometry relative="1" as="geometry">
            <mxPoint x="1930" y="-95" as="sourcePoint" />
            <Array as="points">
              <mxPoint x="1720" y="-82" />
            </Array>
          </mxGeometry>
        </mxCell>
        <mxCell id="uhilBMB9BlpQ-PXIjqh4-31" value="" style="ellipse;whiteSpace=wrap;html=1;align=center;aspect=fixed;resizable=0;points=[];outlineConnect=0;sketch=0;" vertex="1" parent="1">
          <mxGeometry x="1960" y="-87.5" width="10" height="10" as="geometry" />
        </mxCell>
        <mxCell id="uhilBMB9BlpQ-PXIjqh4-32" value="IRequestEmail" style="text;html=1;strokeColor=none;fillColor=none;align=center;verticalAlign=middle;whiteSpace=wrap;rounded=0;" vertex="1" parent="1">
          <mxGeometry x="1940" y="-77.5" width="60" height="30" as="geometry" />
        </mxCell>
        <mxCell id="uhilBMB9BlpQ-PXIjqh4-33" value="" style="rounded=0;whiteSpace=wrap;html=1;" vertex="1" parent="1">
          <mxGeometry x="1821" y="-92.5" width="20" height="20" as="geometry" />
        </mxCell>
        <mxCell id="uhilBMB9BlpQ-PXIjqh4-34" value="" style="rounded=0;whiteSpace=wrap;html=1;" vertex="1" parent="1">
          <mxGeometry x="1850" y="-92.5" width="20" height="20" as="geometry" />
        </mxCell>
        <mxCell id="uhilBMB9BlpQ-PXIjqh4-35" value="" style="rounded=0;whiteSpace=wrap;html=1;" vertex="1" parent="1">
          <mxGeometry x="1880" y="-92.5" width="20" height="20" as="geometry" />
        </mxCell>
        <mxCell id="uhilBMB9BlpQ-PXIjqh4-36" value="" style="rounded=0;whiteSpace=wrap;html=1;" vertex="1" parent="1">
          <mxGeometry x="1910" y="-92.5" width="20" height="20" as="geometry" />
        </mxCell>
        <mxCell id="uhilBMB9BlpQ-PXIjqh4-37" value="" style="rounded=0;whiteSpace=wrap;html=1;" vertex="1" parent="1">
          <mxGeometry x="1990" y="-385" width="20" height="20" as="geometry" />
        </mxCell>
        <mxCell id="uhilBMB9BlpQ-PXIjqh4-38" value="" style="rounded=0;orthogonalLoop=1;jettySize=auto;html=1;endArrow=none;endFill=0;sketch=0;sourcePerimeterSpacing=0;targetPerimeterSpacing=0;exitX=0.5;exitY=0;exitDx=0;exitDy=0;" edge="1" target="uhilBMB9BlpQ-PXIjqh4-40" parent="1" source="Ux2NfSEgZfTg27yrWYkO-8">
          <mxGeometry relative="1" as="geometry">
            <mxPoint x="1570" y="-335" as="sourcePoint" />
            <Array as="points">
              <mxPoint x="-600" y="-610" />
              <mxPoint x="2110" y="-610" />
            </Array>
          </mxGeometry>
        </mxCell>
        <mxCell id="uhilBMB9BlpQ-PXIjqh4-39" value="" style="rounded=0;orthogonalLoop=1;jettySize=auto;html=1;endArrow=halfCircle;endFill=0;entryX=0.5;entryY=0.5;endSize=6;strokeWidth=1;sketch=0;exitX=0.5;exitY=0;exitDx=0;exitDy=0;" edge="1" target="uhilBMB9BlpQ-PXIjqh4-40" parent="1" source="uhilBMB9BlpQ-PXIjqh4-26">
          <mxGeometry relative="1" as="geometry">
            <mxPoint x="1610" y="-335" as="sourcePoint" />
          </mxGeometry>
        </mxCell>
        <mxCell id="uhilBMB9BlpQ-PXIjqh4-40" value="" style="ellipse;whiteSpace=wrap;html=1;align=center;aspect=fixed;resizable=0;points=[];outlineConnect=0;sketch=0;" vertex="1" parent="1">
          <mxGeometry x="2105" y="-546" width="10" height="10" as="geometry" />
        </mxCell>
        <mxCell id="uhilBMB9BlpQ-PXIjqh4-41" value="ISendEmail" style="text;html=1;strokeColor=none;fillColor=none;align=center;verticalAlign=middle;whiteSpace=wrap;rounded=0;" vertex="1" parent="1">
          <mxGeometry x="2120" y="-556" width="60" height="30" as="geometry" />
        </mxCell>
        <mxCell id="uhilBMB9BlpQ-PXIjqh4-42" value="" style="outlineConnect=0;dashed=0;verticalLabelPosition=bottom;verticalAlign=top;align=center;html=1;shape=mxgraph.aws3.bucket;fillColor=#E05243;gradientColor=none;" vertex="1" parent="1">
          <mxGeometry x="-284.44000000000005" y="514" width="60" height="61.5" as="geometry" />
        </mxCell>
        <mxCell id="uhilBMB9BlpQ-PXIjqh4-43" value="" style="outlineConnect=0;dashed=0;verticalLabelPosition=bottom;verticalAlign=top;align=center;html=1;shape=mxgraph.aws3.bucket;fillColor=#E05243;gradientColor=none;" vertex="1" parent="1">
          <mxGeometry x="-135.53" y="514" width="60" height="61.5" as="geometry" />
        </mxCell>
        <mxCell id="uhilBMB9BlpQ-PXIjqh4-51" value="Instancia S3" style="text;html=1;strokeColor=none;fillColor=none;align=center;verticalAlign=middle;whiteSpace=wrap;rounded=0;" vertex="1" parent="1">
          <mxGeometry x="-207.73" y="423" width="60" height="30" as="geometry" />
        </mxCell>
        <mxCell id="uhilBMB9BlpQ-PXIjqh4-52" value="Frontend Bucket" style="text;html=1;strokeColor=none;fillColor=none;align=center;verticalAlign=middle;whiteSpace=wrap;rounded=0;" vertex="1" parent="1">
          <mxGeometry x="-284.44" y="575.5" width="60" height="30" as="geometry" />
        </mxCell>
        <mxCell id="uhilBMB9BlpQ-PXIjqh4-54" value="PDF Bucket" style="text;html=1;strokeColor=none;fillColor=none;align=center;verticalAlign=middle;whiteSpace=wrap;rounded=0;" vertex="1" parent="1">
          <mxGeometry x="-135.53" y="575.5" width="60" height="30" as="geometry" />
        </mxCell>
        <mxCell id="uhilBMB9BlpQ-PXIjqh4-55" value="" style="rounded=0;orthogonalLoop=1;jettySize=auto;html=1;endArrow=none;endFill=0;sketch=0;sourcePerimeterSpacing=0;targetPerimeterSpacing=0;exitX=0.5;exitY=0;exitDx=0;exitDy=0;exitPerimeter=0;" edge="1" target="uhilBMB9BlpQ-PXIjqh4-57" parent="1" source="uhilBMB9BlpQ-PXIjqh4-42">
          <mxGeometry relative="1" as="geometry">
            <mxPoint x="-200" y="495" as="sourcePoint" />
          </mxGeometry>
        </mxCell>
        <mxCell id="uhilBMB9BlpQ-PXIjqh4-56" value="" style="rounded=0;orthogonalLoop=1;jettySize=auto;html=1;endArrow=halfCircle;endFill=0;entryX=0.5;entryY=0.5;endSize=6;strokeWidth=1;sketch=0;exitX=0;exitY=0.5;exitDx=0;exitDy=0;exitPerimeter=0;" edge="1" target="uhilBMB9BlpQ-PXIjqh4-57" parent="1" source="Ux2NfSEgZfTg27yrWYkO-47">
          <mxGeometry relative="1" as="geometry">
            <mxPoint x="-160" y="495" as="sourcePoint" />
            <Array as="points">
              <mxPoint x="-254" y="377" />
            </Array>
          </mxGeometry>
        </mxCell>
        <mxCell id="uhilBMB9BlpQ-PXIjqh4-57" value="" style="ellipse;whiteSpace=wrap;html=1;align=center;aspect=fixed;resizable=0;points=[];outlineConnect=0;sketch=0;" vertex="1" parent="1">
          <mxGeometry x="-259.44" y="442" width="10" height="10" as="geometry" />
        </mxCell>
        <mxCell id="uhilBMB9BlpQ-PXIjqh4-58" value="" style="rounded=0;orthogonalLoop=1;jettySize=auto;html=1;endArrow=none;endFill=0;sketch=0;sourcePerimeterSpacing=0;targetPerimeterSpacing=0;exitX=0.5;exitY=0;exitDx=0;exitDy=0;exitPerimeter=0;" edge="1" target="uhilBMB9BlpQ-PXIjqh4-60" parent="1" source="uhilBMB9BlpQ-PXIjqh4-43">
          <mxGeometry relative="1" as="geometry">
            <mxPoint x="-10" y="485" as="sourcePoint" />
          </mxGeometry>
        </mxCell>
        <mxCell id="uhilBMB9BlpQ-PXIjqh4-59" value="" style="rounded=0;orthogonalLoop=1;jettySize=auto;html=1;endArrow=halfCircle;endFill=0;entryX=0.5;entryY=0.5;endSize=6;strokeWidth=1;sketch=0;exitX=1;exitY=0.5;exitDx=0;exitDy=0;exitPerimeter=0;" edge="1" target="uhilBMB9BlpQ-PXIjqh4-60" parent="1" source="Ux2NfSEgZfTg27yrWYkO-47">
          <mxGeometry relative="1" as="geometry">
            <mxPoint x="30" y="485" as="sourcePoint" />
            <Array as="points">
              <mxPoint x="-106" y="377" />
            </Array>
          </mxGeometry>
        </mxCell>
        <mxCell id="uhilBMB9BlpQ-PXIjqh4-60" value="" style="ellipse;whiteSpace=wrap;html=1;align=center;aspect=fixed;resizable=0;points=[];outlineConnect=0;sketch=0;" vertex="1" parent="1">
          <mxGeometry x="-110.53" y="442" width="10" height="10" as="geometry" />
        </mxCell>
        <mxCell id="uhilBMB9BlpQ-PXIjqh4-61" value="" style="rounded=0;whiteSpace=wrap;html=1;" vertex="1" parent="1">
          <mxGeometry x="2058" y="-80" width="20" height="20" as="geometry" />
        </mxCell>
        <mxCell id="uhilBMB9BlpQ-PXIjqh4-63" value="" style="rounded=0;orthogonalLoop=1;jettySize=auto;html=1;endArrow=none;endFill=0;sketch=0;sourcePerimeterSpacing=0;targetPerimeterSpacing=0;exitX=0.5;exitY=1;exitDx=0;exitDy=0;exitPerimeter=0;" edge="1" target="uhilBMB9BlpQ-PXIjqh4-65" parent="1" source="Ux2NfSEgZfTg27yrWYkO-181">
          <mxGeometry relative="1" as="geometry">
            <mxPoint x="2170" y="285" as="sourcePoint" />
          </mxGeometry>
        </mxCell>
        <mxCell id="uhilBMB9BlpQ-PXIjqh4-64" value="" style="rounded=0;orthogonalLoop=1;jettySize=auto;html=1;endArrow=halfCircle;endFill=0;entryX=0.5;entryY=0.5;endSize=6;strokeWidth=1;sketch=0;exitX=0.5;exitY=1;exitDx=0;exitDy=0;" edge="1" target="uhilBMB9BlpQ-PXIjqh4-65" parent="1" source="uhilBMB9BlpQ-PXIjqh4-54">
          <mxGeometry relative="1" as="geometry">
            <mxPoint x="2210" y="285" as="sourcePoint" />
            <Array as="points">
              <mxPoint x="-106" y="1060" />
              <mxPoint x="2375" y="1050" />
            </Array>
          </mxGeometry>
        </mxCell>
        <mxCell id="uhilBMB9BlpQ-PXIjqh4-65" value="" style="ellipse;whiteSpace=wrap;html=1;align=center;aspect=fixed;resizable=0;points=[];outlineConnect=0;sketch=0;" vertex="1" parent="1">
          <mxGeometry x="2372" y="95" width="10" height="10" as="geometry" />
        </mxCell>
        <mxCell id="uhilBMB9BlpQ-PXIjqh4-66" value="IPDFConversion" style="text;html=1;strokeColor=none;fillColor=none;align=center;verticalAlign=middle;whiteSpace=wrap;rounded=0;" vertex="1" parent="1">
          <mxGeometry x="2290" y="85" width="60" height="30" as="geometry" />
        </mxCell>
      </root>
    </mxGraphModel>
  </diagram>
</mxfile>
